solid OpenSCAD_Model
  facet normal 1 0 0
    outer loop
      vertex 23.4 6.05 0
      vertex 23.4 57.6 6.23733
      vertex 23.4 6.05 25
    endloop
  endfacet
  facet normal 1 0 0
    outer loop
      vertex 23.4 57.6 6.23733
      vertex 23.4 6.05 0
      vertex 23.4 57.6 0
    endloop
  endfacet
  facet normal 1 -0 0
    outer loop
      vertex 23.4 2.3 25
      vertex 23.4 4.05 0
      vertex 23.4 4.05 25
    endloop
  endfacet
  facet normal 1 0 0
    outer loop
      vertex 23.4 4.05 0
      vertex 23.4 2.3 25
      vertex 23.4 2.3 0
    endloop
  endfacet
  facet normal 1 -0 0
    outer loop
      vertex 23.4 0 25
      vertex 23.4 1.35 0
      vertex 23.4 1.35 25
    endloop
  endfacet
  facet normal 1 0 0
    outer loop
      vertex 23.4 1.35 0
      vertex 23.4 0 25
      vertex 23.4 0 0
    endloop
  endfacet
  facet normal -0 0 1
    outer loop
      vertex 4.3 55.6 2
      vertex 17.1 2 2
      vertex 17.1 55.6 2
    endloop
  endfacet
  facet normal 0 0 1
    outer loop
      vertex 17.1 2 2
      vertex 4.3 55.6 2
      vertex 4.3 2 2
    endloop
  endfacet
  facet normal 0 0 -1
    outer loop
      vertex -4 4.05 0
      vertex -2 6.05 0
      vertex -2 4.05 0
    endloop
  endfacet
  facet normal -0 0 -1
    outer loop
      vertex -2 6.05 0
      vertex -4 4.05 0
      vertex -4 6.05 0
    endloop
  endfacet
  facet normal 0 0 -1
    outer loop
      vertex -3.1 1.35 0
      vertex -2 2.3 0
      vertex -2 1.35 0
    endloop
  endfacet
  facet normal -0 0 -1
    outer loop
      vertex -2 2.3 0
      vertex -3.1 1.35 0
      vertex -3.1 2.3 0
    endloop
  endfacet
  facet normal 0 0 -1
    outer loop
      vertex 21.4 2 0
      vertex 23.4 1.35 0
      vertex 23.4 0 0
    endloop
  endfacet
  facet normal 0 0 -1
    outer loop
      vertex 23.4 1.35 0
      vertex 21.4 2 0
      vertex 23.4 2.3 0
    endloop
  endfacet
  facet normal -0 0 -1
    outer loop
      vertex 23.4 2.3 0
      vertex 21.4 2 0
      vertex 23.4 4.05 0
    endloop
  endfacet
  facet normal -0 0 -1
    outer loop
      vertex 23.4 4.05 0
      vertex 21.4 2 0
      vertex 23.4 6.05 0
    endloop
  endfacet
  facet normal 0 0 -1
    outer loop
      vertex 21.4 55.6 0
      vertex 23.4 6.05 0
      vertex 21.4 2 0
    endloop
  endfacet
  facet normal 0 0 -1
    outer loop
      vertex 23.4 0 0
      vertex 17.1 2 0
      vertex 21.4 2 0
    endloop
  endfacet
  facet normal 0 0 -1
    outer loop
      vertex 17.1 2 0
      vertex 4.3 2 0
      vertex 17.1 55.6 0
    endloop
  endfacet
  facet normal 0 0 -1
    outer loop
      vertex 23.4 0 0
      vertex 4.3 2 0
      vertex 17.1 2 0
    endloop
  endfacet
  facet normal 0 0 -1
    outer loop
      vertex -2 0 0
      vertex 4.3 2 0
      vertex 23.4 0 0
    endloop
  endfacet
  facet normal 0 0 -1
    outer loop
      vertex -2 1.35 0
      vertex 0 2 0
      vertex -2 0 0
    endloop
  endfacet
  facet normal -0 0 -1
    outer loop
      vertex 4.3 2 0
      vertex -2 0 0
      vertex 0 2 0
    endloop
  endfacet
  facet normal 0 0 -1
    outer loop
      vertex 23.4 1.35 0
      vertex 24.5 2.3 0
      vertex 24.5 1.35 0
    endloop
  endfacet
  facet normal -0 0 -1
    outer loop
      vertex 24.5 2.3 0
      vertex 23.4 1.35 0
      vertex 23.4 2.3 0
    endloop
  endfacet
  facet normal 0 0 -1
    outer loop
      vertex 23.4 4.05 0
      vertex 25.4 6.05 0
      vertex 25.4 4.05 0
    endloop
  endfacet
  facet normal -0 0 -1
    outer loop
      vertex 25.4 6.05 0
      vertex 23.4 4.05 0
      vertex 23.4 6.05 0
    endloop
  endfacet
  facet normal 0 0 -1
    outer loop
      vertex 23.4 6.05 0
      vertex 21.4 55.6 0
      vertex 23.4 57.6 0
    endloop
  endfacet
  facet normal 0 0 -1
    outer loop
      vertex 17.1 55.6 0
      vertex 23.4 57.6 0
      vertex 21.4 55.6 0
    endloop
  endfacet
  facet normal 0 0 -1
    outer loop
      vertex 4.3 55.6 0
      vertex 17.1 55.6 0
      vertex 4.3 2 0
    endloop
  endfacet
  facet normal 0 0 -1
    outer loop
      vertex 4.3 55.6 0
      vertex 23.4 57.6 0
      vertex 17.1 55.6 0
    endloop
  endfacet
  facet normal 0 0 -1
    outer loop
      vertex -2 57.6 0
      vertex 4.3 55.6 0
      vertex 0 55.6 0
    endloop
  endfacet
  facet normal 0 0 -1
    outer loop
      vertex -2 2.3 0
      vertex 0 2 0
      vertex -2 1.35 0
    endloop
  endfacet
  facet normal 0 0 -1
    outer loop
      vertex -2 4.05 0
      vertex 0 2 0
      vertex -2 2.3 0
    endloop
  endfacet
  facet normal 0 0 -1
    outer loop
      vertex -2 6.05 0
      vertex 0 2 0
      vertex -2 4.05 0
    endloop
  endfacet
  facet normal 0 0 -1
    outer loop
      vertex 0 2 0
      vertex -2 6.05 0
      vertex 0 55.6 0
    endloop
  endfacet
  facet normal 0 0 -1
    outer loop
      vertex 4.3 55.6 0
      vertex -2 57.6 0
      vertex 23.4 57.6 0
    endloop
  endfacet
  facet normal 0 0 -1
    outer loop
      vertex -2 57.6 0
      vertex 0 55.6 0
      vertex -2 6.05 0
    endloop
  endfacet
  facet normal 1 0 0
    outer loop
      vertex 0 2 2
      vertex 0 55.6 6.96527
      vertex 0 6.05 25
    endloop
  endfacet
  facet normal 1 0 0
    outer loop
      vertex 0 2 2
      vertex 0 6.05 25
      vertex 0 2 25
    endloop
  endfacet
  facet normal 1 0 0
    outer loop
      vertex 0 55.6 6.96527
      vertex 0 2 2
      vertex 0 55.6 2
    endloop
  endfacet
  facet normal 0 1 -0
    outer loop
      vertex 23.4 57.6 0
      vertex -2 57.6 6.23733
      vertex 23.4 57.6 6.23733
    endloop
  endfacet
  facet normal 0 1 0
    outer loop
      vertex -2 57.6 6.23733
      vertex 23.4 57.6 0
      vertex -2 57.6 0
    endloop
  endfacet
  facet normal 0 -1 0
    outer loop
      vertex -2 0 25
      vertex 8.30948 0 22.5
      vertex 23.4 0 25
    endloop
  endfacet
  facet normal 0 -1 0
    outer loop
      vertex -2 0 25
      vertex 8.14532 0 22.429
      vertex 8.30948 0 22.5
    endloop
  endfacet
  facet normal 0 -1 0
    outer loop
      vertex -2 0 25
      vertex 7.80948 0 22.2578
      vertex 8.14532 0 22.429
    endloop
  endfacet
  facet normal 0 -1 0
    outer loop
      vertex -2 0 25
      vertex 7.48504 0 22.066
      vertex 7.80948 0 22.2578
    endloop
  endfacet
  facet normal 0 -1 0
    outer loop
      vertex -2 0 25
      vertex 7.17329 0 21.8541
      vertex 7.48504 0 22.066
    endloop
  endfacet
  facet normal 0 -1 0
    outer loop
      vertex -2 0 25
      vertex 6.87546 0 21.6231
      vertex 7.17329 0 21.8541
    endloop
  endfacet
  facet normal 0 -1 0
    outer loop
      vertex -2 0 25
      vertex 6.59272 0 21.3738
      vertex 6.87546 0 21.6231
    endloop
  endfacet
  facet normal 0 -1 0
    outer loop
      vertex -2 0 25
      vertex 6.32619 0 21.1073
      vertex 6.59272 0 21.3738
    endloop
  endfacet
  facet normal 0 -1 0
    outer loop
      vertex -2 0 25
      vertex 6.07692 0 20.8245
      vertex 6.32619 0 21.1073
    endloop
  endfacet
  facet normal 0 -1 0
    outer loop
      vertex -2 0 25
      vertex 5.8459 0 20.5267
      vertex 6.07692 0 20.8245
    endloop
  endfacet
  facet normal 0 -1 0
    outer loop
      vertex -2 0 25
      vertex 5.63403 0 20.215
      vertex 5.8459 0 20.5267
    endloop
  endfacet
  facet normal 0 -1 0
    outer loop
      vertex -2 0 25
      vertex 5.44216 0 19.8905
      vertex 5.63403 0 20.215
    endloop
  endfacet
  facet normal 0 -1 0
    outer loop
      vertex -2 0 25
      vertex 5.27104 0 19.5547
      vertex 5.44216 0 19.8905
    endloop
  endfacet
  facet normal 0 -1 0
    outer loop
      vertex -2 0 25
      vertex 5.12134 0 19.2087
      vertex 5.27104 0 19.5547
    endloop
  endfacet
  facet normal 0 -1 0
    outer loop
      vertex -2 0 25
      vertex 4.99366 0 18.8541
      vertex 5.12134 0 19.2087
    endloop
  endfacet
  facet normal 0 -1 0
    outer loop
      vertex -2 0 25
      vertex 4.8885 0 18.4921
      vertex 4.99366 0 18.8541
    endloop
  endfacet
  facet normal 0 -1 0
    outer loop
      vertex -2 0 25
      vertex 4.80628 0 18.1243
      vertex 4.8885 0 18.4921
    endloop
  endfacet
  facet normal 0 -1 0
    outer loop
      vertex -2 0 25
      vertex 4.74731 0 17.752
      vertex 4.80628 0 18.1243
    endloop
  endfacet
  facet normal 0 -1 0
    outer loop
      vertex -2 0 25
      vertex 4.71184 0 17.3767
      vertex 4.74731 0 17.752
    endloop
  endfacet
  facet normal 0 -1 0
    outer loop
      vertex -2 0 25
      vertex 4.7 0 17
      vertex 4.71184 0 17.3767
    endloop
  endfacet
  facet normal 0 -1 0
    outer loop
      vertex -2 0 25
      vertex 4.71184 0 16.6233
      vertex 4.7 0 17
    endloop
  endfacet
  facet normal 0 -1 0
    outer loop
      vertex -2 0 25
      vertex 4.74731 0 16.248
      vertex 4.71184 0 16.6233
    endloop
  endfacet
  facet normal 0 -1 0
    outer loop
      vertex -2 0 25
      vertex 4.80628 0 15.8757
      vertex 4.74731 0 16.248
    endloop
  endfacet
  facet normal 0 -1 0
    outer loop
      vertex -2 0 25
      vertex 4.8885 0 15.5079
      vertex 4.80628 0 15.8757
    endloop
  endfacet
  facet normal 0 -1 0
    outer loop
      vertex -2 0 0
      vertex 4.8885 0 15.5079
      vertex -2 0 25
    endloop
  endfacet
  facet normal 0 -1 -0
    outer loop
      vertex 4.8885 0 15.5079
      vertex -2 0 0
      vertex 4.99366 0 15.1459
    endloop
  endfacet
  facet normal 0 -1 -0
    outer loop
      vertex 4.99366 0 15.1459
      vertex -2 0 0
      vertex 5.12134 0 14.7913
    endloop
  endfacet
  facet normal 0 -1 -0
    outer loop
      vertex 5.12134 0 14.7913
      vertex -2 0 0
      vertex 5.27104 0 14.4453
    endloop
  endfacet
  facet normal -0 -1 0
    outer loop
      vertex 5.7 0 7.4
      vertex 5.27104 0 14.4453
      vertex -2 0 0
    endloop
  endfacet
  facet normal 0 -1 0
    outer loop
      vertex 5.27104 0 14.4453
      vertex 5.7 0 7.4
      vertex 5.44216 0 14.1095
    endloop
  endfacet
  facet normal 0 -1 -0
    outer loop
      vertex 8.30948 0 11.5
      vertex 5.7 0 7.4
      vertex 13.0905 0 11.5
    endloop
  endfacet
  facet normal 0 -1 -0
    outer loop
      vertex 8.14532 0 11.571
      vertex 5.7 0 7.4
      vertex 8.30948 0 11.5
    endloop
  endfacet
  facet normal 0 -1 -0
    outer loop
      vertex 7.80948 0 11.7422
      vertex 5.7 0 7.4
      vertex 8.14532 0 11.571
    endloop
  endfacet
  facet normal 0 -1 -0
    outer loop
      vertex 7.48504 0 11.934
      vertex 5.7 0 7.4
      vertex 7.80948 0 11.7422
    endloop
  endfacet
  facet normal 0 -1 -0
    outer loop
      vertex 7.17329 0 12.1459
      vertex 5.7 0 7.4
      vertex 7.48504 0 11.934
    endloop
  endfacet
  facet normal 0 -1 -0
    outer loop
      vertex 6.87546 0 12.3769
      vertex 5.7 0 7.4
      vertex 7.17329 0 12.1459
    endloop
  endfacet
  facet normal 0 -1 -0
    outer loop
      vertex 6.59272 0 12.6262
      vertex 5.7 0 7.4
      vertex 6.87546 0 12.3769
    endloop
  endfacet
  facet normal 0 -1 -0
    outer loop
      vertex 6.32619 0 12.8927
      vertex 5.7 0 7.4
      vertex 6.59272 0 12.6262
    endloop
  endfacet
  facet normal 0 -1 -0
    outer loop
      vertex 6.07692 0 13.1755
      vertex 5.7 0 7.4
      vertex 6.32619 0 12.8927
    endloop
  endfacet
  facet normal 0 -1 -0
    outer loop
      vertex 5.8459 0 13.4733
      vertex 5.7 0 7.4
      vertex 6.07692 0 13.1755
    endloop
  endfacet
  facet normal 0 -1 0
    outer loop
      vertex 5.44216 0 14.1095
      vertex 5.7 0 7.4
      vertex 5.63403 0 13.785
    endloop
  endfacet
  facet normal 0 -1 0
    outer loop
      vertex 5.63403 0 13.785
      vertex 5.7 0 7.4
      vertex 5.8459 0 13.4733
    endloop
  endfacet
  facet normal 0 -1 -0
    outer loop
      vertex 5.7 0 3.4
      vertex -2 0 0
      vertex 15.7 0 3.4
    endloop
  endfacet
  facet normal 0 -1 -0
    outer loop
      vertex 5.7 0 7.4
      vertex -2 0 0
      vertex 5.7 0 3.4
    endloop
  endfacet
  facet normal 0 -1 0
    outer loop
      vertex 13.0905 0 22.5
      vertex 23.4 0 25
      vertex 8.30948 0 22.5
    endloop
  endfacet
  facet normal 0 -1 0
    outer loop
      vertex 13.2547 0 22.429
      vertex 23.4 0 25
      vertex 13.0905 0 22.5
    endloop
  endfacet
  facet normal 0 -1 0
    outer loop
      vertex 13.5905 0 22.2578
      vertex 23.4 0 25
      vertex 13.2547 0 22.429
    endloop
  endfacet
  facet normal 0 -1 0
    outer loop
      vertex 13.915 0 22.066
      vertex 23.4 0 25
      vertex 13.5905 0 22.2578
    endloop
  endfacet
  facet normal 0 -1 0
    outer loop
      vertex 14.2267 0 21.8541
      vertex 23.4 0 25
      vertex 13.915 0 22.066
    endloop
  endfacet
  facet normal 0 -1 0
    outer loop
      vertex 14.5245 0 21.6231
      vertex 23.4 0 25
      vertex 14.2267 0 21.8541
    endloop
  endfacet
  facet normal 0 -1 0
    outer loop
      vertex 14.8073 0 21.3738
      vertex 23.4 0 25
      vertex 14.5245 0 21.6231
    endloop
  endfacet
  facet normal 0 -1 0
    outer loop
      vertex 15.0738 0 21.1073
      vertex 23.4 0 25
      vertex 14.8073 0 21.3738
    endloop
  endfacet
  facet normal 0 -1 0
    outer loop
      vertex 15.3231 0 20.8245
      vertex 23.4 0 25
      vertex 15.0738 0 21.1073
    endloop
  endfacet
  facet normal 0 -1 0
    outer loop
      vertex 15.5541 0 20.5267
      vertex 23.4 0 25
      vertex 15.3231 0 20.8245
    endloop
  endfacet
  facet normal 0 -1 0
    outer loop
      vertex 15.766 0 20.215
      vertex 23.4 0 25
      vertex 15.5541 0 20.5267
    endloop
  endfacet
  facet normal 0 -1 0
    outer loop
      vertex 15.9578 0 19.8905
      vertex 23.4 0 25
      vertex 15.766 0 20.215
    endloop
  endfacet
  facet normal 0 -1 0
    outer loop
      vertex 16.129 0 19.5547
      vertex 23.4 0 25
      vertex 15.9578 0 19.8905
    endloop
  endfacet
  facet normal 0 -1 0
    outer loop
      vertex 16.2787 0 19.2087
      vertex 23.4 0 25
      vertex 16.129 0 19.5547
    endloop
  endfacet
  facet normal 0 -1 0
    outer loop
      vertex 16.4063 0 18.8541
      vertex 23.4 0 25
      vertex 16.2787 0 19.2087
    endloop
  endfacet
  facet normal 0 -1 0
    outer loop
      vertex 16.5115 0 18.4921
      vertex 23.4 0 25
      vertex 16.4063 0 18.8541
    endloop
  endfacet
  facet normal 0 -1 0
    outer loop
      vertex 16.5937 0 18.1243
      vertex 23.4 0 25
      vertex 16.5115 0 18.4921
    endloop
  endfacet
  facet normal 0 -1 0
    outer loop
      vertex 16.6527 0 17.752
      vertex 23.4 0 25
      vertex 16.5937 0 18.1243
    endloop
  endfacet
  facet normal 0 -1 0
    outer loop
      vertex 16.6882 0 17.3767
      vertex 23.4 0 25
      vertex 16.6527 0 17.752
    endloop
  endfacet
  facet normal 0 -1 0
    outer loop
      vertex 16.7 0 17
      vertex 23.4 0 25
      vertex 16.6882 0 17.3767
    endloop
  endfacet
  facet normal 0 -1 0
    outer loop
      vertex 16.6882 0 16.6233
      vertex 23.4 0 25
      vertex 16.7 0 17
    endloop
  endfacet
  facet normal 0 -1 0
    outer loop
      vertex 16.6527 0 16.248
      vertex 23.4 0 25
      vertex 16.6882 0 16.6233
    endloop
  endfacet
  facet normal 0 -1 0
    outer loop
      vertex 16.5937 0 15.8757
      vertex 23.4 0 25
      vertex 16.6527 0 16.248
    endloop
  endfacet
  facet normal 0 -1 0
    outer loop
      vertex 16.5115 0 15.5079
      vertex 23.4 0 25
      vertex 16.5937 0 15.8757
    endloop
  endfacet
  facet normal 0 -1 0
    outer loop
      vertex 23.4 0 0
      vertex 16.5115 0 15.5079
      vertex 16.4063 0 15.1459
    endloop
  endfacet
  facet normal 0 -1 0
    outer loop
      vertex 23.4 0 0
      vertex 16.4063 0 15.1459
      vertex 16.2787 0 14.7913
    endloop
  endfacet
  facet normal 0 -1 0
    outer loop
      vertex 23.4 0 0
      vertex 16.2787 0 14.7913
      vertex 16.129 0 14.4453
    endloop
  endfacet
  facet normal 0 -1 0
    outer loop
      vertex 15.7 0 7.4
      vertex 16.129 0 14.4453
      vertex 15.9578 0 14.1095
    endloop
  endfacet
  facet normal 0 -1 0
    outer loop
      vertex 15.7 0 7.4
      vertex 15.9578 0 14.1095
      vertex 15.766 0 13.785
    endloop
  endfacet
  facet normal 0 -1 0
    outer loop
      vertex 15.7 0 7.4
      vertex 15.766 0 13.785
      vertex 15.5541 0 13.4733
    endloop
  endfacet
  facet normal 0 -1 0
    outer loop
      vertex 15.7 0 7.4
      vertex 13.0905 0 11.5
      vertex 5.7 0 7.4
    endloop
  endfacet
  facet normal 0 -1 0
    outer loop
      vertex 13.0905 0 11.5
      vertex 15.7 0 7.4
      vertex 13.2547 0 11.571
    endloop
  endfacet
  facet normal 0 -1 0
    outer loop
      vertex 13.2547 0 11.571
      vertex 15.7 0 7.4
      vertex 13.5905 0 11.7422
    endloop
  endfacet
  facet normal 0 -1 0
    outer loop
      vertex 15.7 0 7.4
      vertex 13.915 0 11.934
      vertex 13.5905 0 11.7422
    endloop
  endfacet
  facet normal 0 -1 0
    outer loop
      vertex 15.7 0 7.4
      vertex 14.2267 0 12.1459
      vertex 13.915 0 11.934
    endloop
  endfacet
  facet normal 0 -1 0
    outer loop
      vertex 15.7 0 7.4
      vertex 14.5245 0 12.3769
      vertex 14.2267 0 12.1459
    endloop
  endfacet
  facet normal 0 -1 0
    outer loop
      vertex 15.7 0 7.4
      vertex 14.8073 0 12.6262
      vertex 14.5245 0 12.3769
    endloop
  endfacet
  facet normal 0 -1 0
    outer loop
      vertex 15.7 0 7.4
      vertex 15.0738 0 12.8927
      vertex 14.8073 0 12.6262
    endloop
  endfacet
  facet normal 0 -1 0
    outer loop
      vertex 15.7 0 7.4
      vertex 15.3231 0 13.1755
      vertex 15.0738 0 12.8927
    endloop
  endfacet
  facet normal 0 -1 0
    outer loop
      vertex 15.7 0 7.4
      vertex 15.5541 0 13.4733
      vertex 15.3231 0 13.1755
    endloop
  endfacet
  facet normal 0 -1 -0
    outer loop
      vertex 16.129 0 14.4453
      vertex 15.7 0 7.4
      vertex 23.4 0 0
    endloop
  endfacet
  facet normal 0 -1 0
    outer loop
      vertex 23.4 0 0
      vertex 15.7 0 7.4
      vertex 15.7 0 3.4
    endloop
  endfacet
  facet normal 0 -1 0
    outer loop
      vertex 16.5115 0 15.5079
      vertex 23.4 0 0
      vertex 23.4 0 25
    endloop
  endfacet
  facet normal 0 -1 0
    outer loop
      vertex 23.4 0 0
      vertex 15.7 0 3.4
      vertex -2 0 0
    endloop
  endfacet
  facet normal 0 0 1
    outer loop
      vertex -2 4.05 25
      vertex 0 6.05 25
      vertex -2 6.05 25
    endloop
  endfacet
  facet normal -0 0 1
    outer loop
      vertex 23.4 6.05 25
      vertex 25.4 4.05 25
      vertex 25.4 6.05 25
    endloop
  endfacet
  facet normal 0 0 1
    outer loop
      vertex 23.4 6.05 25
      vertex 23.4 4.05 25
      vertex 25.4 4.05 25
    endloop
  endfacet
  facet normal -0 0 1
    outer loop
      vertex 21.4 6.05 25
      vertex 23.4 4.05 25
      vertex 23.4 6.05 25
    endloop
  endfacet
  facet normal 0 0 1
    outer loop
      vertex 21.4 2 25
      vertex 23.4 4.05 25
      vertex 21.4 6.05 25
    endloop
  endfacet
  facet normal 0 0 1
    outer loop
      vertex 23.4 2.3 25
      vertex 21.4 2 25
      vertex 23.4 1.35 25
    endloop
  endfacet
  facet normal 0 0 1
    outer loop
      vertex 23.4 4.05 25
      vertex 21.4 2 25
      vertex 23.4 2.3 25
    endloop
  endfacet
  facet normal 0 0 1
    outer loop
      vertex 23.4 1.35 25
      vertex 21.4 2 25
      vertex 23.4 0 25
    endloop
  endfacet
  facet normal -0 0 1
    outer loop
      vertex 0 2 25
      vertex 23.4 0 25
      vertex 21.4 2 25
    endloop
  endfacet
  facet normal 0 0 1
    outer loop
      vertex 0 6.05 25
      vertex -2 4.05 25
      vertex 0 2 25
    endloop
  endfacet
  facet normal -0 0 1
    outer loop
      vertex -2 2.3 25
      vertex 0 2 25
      vertex -2 4.05 25
    endloop
  endfacet
  facet normal 0 0 1
    outer loop
      vertex -2 1.35 25
      vertex 0 2 25
      vertex -2 2.3 25
    endloop
  endfacet
  facet normal 0 0 1
    outer loop
      vertex -2 0 25
      vertex 0 2 25
      vertex -2 1.35 25
    endloop
  endfacet
  facet normal 0 0 1
    outer loop
      vertex 0 2 25
      vertex -2 0 25
      vertex 23.4 0 25
    endloop
  endfacet
  facet normal -0 0 1
    outer loop
      vertex 23.4 2.3 25
      vertex 24.5 1.35 25
      vertex 24.5 2.3 25
    endloop
  endfacet
  facet normal 0 0 1
    outer loop
      vertex 24.5 1.35 25
      vertex 23.4 2.3 25
      vertex 23.4 1.35 25
    endloop
  endfacet
  facet normal -0 0 1
    outer loop
      vertex -3.1 2.3 25
      vertex -2 1.35 25
      vertex -2 2.3 25
    endloop
  endfacet
  facet normal 0 0 1
    outer loop
      vertex -2 1.35 25
      vertex -3.1 2.3 25
      vertex -3.1 1.35 25
    endloop
  endfacet
  facet normal -0 0 1
    outer loop
      vertex -4 6.05 25
      vertex -2 4.05 25
      vertex -2 6.05 25
    endloop
  endfacet
  facet normal 0 0 1
    outer loop
      vertex -2 4.05 25
      vertex -4 6.05 25
      vertex -4 4.05 25
    endloop
  endfacet
  facet normal 0 1 0
    outer loop
      vertex 21.4 2 25
      vertex 13.0905 2 22.5
      vertex 0 2 25
    endloop
  endfacet
  facet normal 0 1 0
    outer loop
      vertex 21.4 2 25
      vertex 13.2547 2 22.429
      vertex 13.0905 2 22.5
    endloop
  endfacet
  facet normal 0 1 0
    outer loop
      vertex 21.4 2 25
      vertex 13.5905 2 22.2578
      vertex 13.2547 2 22.429
    endloop
  endfacet
  facet normal 0 1 0
    outer loop
      vertex 21.4 2 25
      vertex 13.915 2 22.066
      vertex 13.5905 2 22.2578
    endloop
  endfacet
  facet normal 0 1 0
    outer loop
      vertex 21.4 2 25
      vertex 14.2267 2 21.8541
      vertex 13.915 2 22.066
    endloop
  endfacet
  facet normal 0 1 0
    outer loop
      vertex 21.4 2 25
      vertex 14.5245 2 21.6231
      vertex 14.2267 2 21.8541
    endloop
  endfacet
  facet normal 0 1 0
    outer loop
      vertex 21.4 2 25
      vertex 14.8073 2 21.3738
      vertex 14.5245 2 21.6231
    endloop
  endfacet
  facet normal 0 1 0
    outer loop
      vertex 21.4 2 25
      vertex 15.0738 2 21.1073
      vertex 14.8073 2 21.3738
    endloop
  endfacet
  facet normal 0 1 0
    outer loop
      vertex 21.4 2 25
      vertex 15.3231 2 20.8245
      vertex 15.0738 2 21.1073
    endloop
  endfacet
  facet normal 0 1 0
    outer loop
      vertex 21.4 2 25
      vertex 15.5541 2 20.5267
      vertex 15.3231 2 20.8245
    endloop
  endfacet
  facet normal 0 1 0
    outer loop
      vertex 21.4 2 25
      vertex 15.766 2 20.215
      vertex 15.5541 2 20.5267
    endloop
  endfacet
  facet normal 0 1 0
    outer loop
      vertex 21.4 2 25
      vertex 15.9578 2 19.8905
      vertex 15.766 2 20.215
    endloop
  endfacet
  facet normal 0 1 0
    outer loop
      vertex 21.4 2 25
      vertex 16.129 2 19.5547
      vertex 15.9578 2 19.8905
    endloop
  endfacet
  facet normal 0 1 0
    outer loop
      vertex 21.4 2 25
      vertex 16.2787 2 19.2087
      vertex 16.129 2 19.5547
    endloop
  endfacet
  facet normal 0 1 0
    outer loop
      vertex 21.4 2 25
      vertex 16.4063 2 18.8541
      vertex 16.2787 2 19.2087
    endloop
  endfacet
  facet normal 0 1 0
    outer loop
      vertex 21.4 2 25
      vertex 16.5115 2 18.4921
      vertex 16.4063 2 18.8541
    endloop
  endfacet
  facet normal 0 1 0
    outer loop
      vertex 21.4 2 25
      vertex 16.5937 2 18.1243
      vertex 16.5115 2 18.4921
    endloop
  endfacet
  facet normal 0 1 0
    outer loop
      vertex 21.4 2 25
      vertex 16.6527 2 17.752
      vertex 16.5937 2 18.1243
    endloop
  endfacet
  facet normal 0 1 0
    outer loop
      vertex 21.4 2 25
      vertex 16.6882 2 17.3767
      vertex 16.6527 2 17.752
    endloop
  endfacet
  facet normal 0 1 0
    outer loop
      vertex 21.4 2 25
      vertex 16.7 2 17
      vertex 16.6882 2 17.3767
    endloop
  endfacet
  facet normal 0 1 0
    outer loop
      vertex 21.4 2 25
      vertex 16.6882 2 16.6233
      vertex 16.7 2 17
    endloop
  endfacet
  facet normal 0 1 0
    outer loop
      vertex 21.4 2 25
      vertex 16.6527 2 16.248
      vertex 16.6882 2 16.6233
    endloop
  endfacet
  facet normal 0 1 0
    outer loop
      vertex 21.4 2 25
      vertex 16.5937 2 15.8757
      vertex 16.6527 2 16.248
    endloop
  endfacet
  facet normal 0 1 -0
    outer loop
      vertex 21.4 2 2
      vertex 16.5937 2 15.8757
      vertex 21.4 2 25
    endloop
  endfacet
  facet normal 0 1 0
    outer loop
      vertex 16.5937 2 15.8757
      vertex 21.4 2 2
      vertex 16.5115 2 15.5079
    endloop
  endfacet
  facet normal 0 1 0
    outer loop
      vertex 16.5115 2 15.5079
      vertex 21.4 2 2
      vertex 16.4063 2 15.1459
    endloop
  endfacet
  facet normal 0 1 0
    outer loop
      vertex 16.4063 2 15.1459
      vertex 21.4 2 2
      vertex 16.2787 2 14.7913
    endloop
  endfacet
  facet normal 0 1 0
    outer loop
      vertex 13.0905 2 11.5
      vertex 15.7 2 7.4
      vertex 8.30948 2 11.5
    endloop
  endfacet
  facet normal 0 1 0
    outer loop
      vertex 13.2547 2 11.571
      vertex 15.7 2 7.4
      vertex 13.0905 2 11.5
    endloop
  endfacet
  facet normal 0 1 0
    outer loop
      vertex 13.5905 2 11.7422
      vertex 15.7 2 7.4
      vertex 13.2547 2 11.571
    endloop
  endfacet
  facet normal 0 1 0
    outer loop
      vertex 13.915 2 11.934
      vertex 15.7 2 7.4
      vertex 13.5905 2 11.7422
    endloop
  endfacet
  facet normal 0 1 0
    outer loop
      vertex 14.2267 2 12.1459
      vertex 15.7 2 7.4
      vertex 13.915 2 11.934
    endloop
  endfacet
  facet normal 0 1 0
    outer loop
      vertex 14.5245 2 12.3769
      vertex 15.7 2 7.4
      vertex 14.2267 2 12.1459
    endloop
  endfacet
  facet normal 0 1 0
    outer loop
      vertex 14.8073 2 12.6262
      vertex 15.7 2 7.4
      vertex 14.5245 2 12.3769
    endloop
  endfacet
  facet normal 0 1 0
    outer loop
      vertex 15.0738 2 12.8927
      vertex 15.7 2 7.4
      vertex 14.8073 2 12.6262
    endloop
  endfacet
  facet normal 0 1 0
    outer loop
      vertex 15.3231 2 13.1755
      vertex 15.7 2 7.4
      vertex 15.0738 2 12.8927
    endloop
  endfacet
  facet normal 0 1 0
    outer loop
      vertex 15.5541 2 13.4733
      vertex 15.7 2 7.4
      vertex 15.3231 2 13.1755
    endloop
  endfacet
  facet normal 0 1 0
    outer loop
      vertex 15.766 2 13.785
      vertex 15.7 2 7.4
      vertex 15.5541 2 13.4733
    endloop
  endfacet
  facet normal 0 1 0
    outer loop
      vertex 15.9578 2 14.1095
      vertex 15.7 2 7.4
      vertex 15.766 2 13.785
    endloop
  endfacet
  facet normal 0 1 0
    outer loop
      vertex 16.129 2 14.4453
      vertex 15.7 2 7.4
      vertex 15.9578 2 14.1095
    endloop
  endfacet
  facet normal 0 1 0
    outer loop
      vertex 16.2787 2 14.7913
      vertex 21.4 2 2
      vertex 16.129 2 14.4453
    endloop
  endfacet
  facet normal 0 1 0
    outer loop
      vertex 16.129 2 14.4453
      vertex 21.4 2 2
      vertex 15.7 2 7.4
    endloop
  endfacet
  facet normal 0 1 0
    outer loop
      vertex 15.7 2 7.4
      vertex 17.1 2 2
      vertex 15.7 2 3.4
    endloop
  endfacet
  facet normal 0 1 -0
    outer loop
      vertex 17.1 2 2
      vertex 15.7 2 7.4
      vertex 21.4 2 2
    endloop
  endfacet
  facet normal 0 1 -0
    outer loop
      vertex 8.30948 2 22.5
      vertex 0 2 25
      vertex 13.0905 2 22.5
    endloop
  endfacet
  facet normal 0 1 -0
    outer loop
      vertex 8.14532 2 22.429
      vertex 0 2 25
      vertex 8.30948 2 22.5
    endloop
  endfacet
  facet normal 0 1 -0
    outer loop
      vertex 7.80948 2 22.2578
      vertex 0 2 25
      vertex 8.14532 2 22.429
    endloop
  endfacet
  facet normal 0 1 -0
    outer loop
      vertex 7.48504 2 22.066
      vertex 0 2 25
      vertex 7.80948 2 22.2578
    endloop
  endfacet
  facet normal 0 1 -0
    outer loop
      vertex 7.17329 2 21.8541
      vertex 0 2 25
      vertex 7.48504 2 22.066
    endloop
  endfacet
  facet normal 0 1 -0
    outer loop
      vertex 6.87546 2 21.6231
      vertex 0 2 25
      vertex 7.17329 2 21.8541
    endloop
  endfacet
  facet normal 0 1 -0
    outer loop
      vertex 6.59272 2 21.3738
      vertex 0 2 25
      vertex 6.87546 2 21.6231
    endloop
  endfacet
  facet normal 0 1 -0
    outer loop
      vertex 6.32619 2 21.1073
      vertex 0 2 25
      vertex 6.59272 2 21.3738
    endloop
  endfacet
  facet normal 0 1 -0
    outer loop
      vertex 6.07692 2 20.8245
      vertex 0 2 25
      vertex 6.32619 2 21.1073
    endloop
  endfacet
  facet normal 0 1 -0
    outer loop
      vertex 5.8459 2 20.5267
      vertex 0 2 25
      vertex 6.07692 2 20.8245
    endloop
  endfacet
  facet normal 0 1 -0
    outer loop
      vertex 5.63403 2 20.215
      vertex 0 2 25
      vertex 5.8459 2 20.5267
    endloop
  endfacet
  facet normal 0 1 -0
    outer loop
      vertex 5.44216 2 19.8905
      vertex 0 2 25
      vertex 5.63403 2 20.215
    endloop
  endfacet
  facet normal 0 1 -0
    outer loop
      vertex 5.27104 2 19.5547
      vertex 0 2 25
      vertex 5.44216 2 19.8905
    endloop
  endfacet
  facet normal 0 1 -0
    outer loop
      vertex 5.12134 2 19.2087
      vertex 0 2 25
      vertex 5.27104 2 19.5547
    endloop
  endfacet
  facet normal 0 1 -0
    outer loop
      vertex 4.99366 2 18.8541
      vertex 0 2 25
      vertex 5.12134 2 19.2087
    endloop
  endfacet
  facet normal 0 1 -0
    outer loop
      vertex 4.8885 2 18.4921
      vertex 0 2 25
      vertex 4.99366 2 18.8541
    endloop
  endfacet
  facet normal 0 1 -0
    outer loop
      vertex 4.80628 2 18.1243
      vertex 0 2 25
      vertex 4.8885 2 18.4921
    endloop
  endfacet
  facet normal 0 1 -0
    outer loop
      vertex 4.74731 2 17.752
      vertex 0 2 25
      vertex 4.80628 2 18.1243
    endloop
  endfacet
  facet normal 0 1 -0
    outer loop
      vertex 4.71184 2 17.3767
      vertex 0 2 25
      vertex 4.74731 2 17.752
    endloop
  endfacet
  facet normal 0 1 -0
    outer loop
      vertex 4.7 2 17
      vertex 0 2 25
      vertex 4.71184 2 17.3767
    endloop
  endfacet
  facet normal 0 1 0
    outer loop
      vertex 4.71184 2 16.6233
      vertex 0 2 25
      vertex 4.7 2 17
    endloop
  endfacet
  facet normal 0 1 0
    outer loop
      vertex 4.74731 2 16.248
      vertex 0 2 25
      vertex 4.71184 2 16.6233
    endloop
  endfacet
  facet normal 0 1 0
    outer loop
      vertex 4.80628 2 15.8757
      vertex 0 2 25
      vertex 4.74731 2 16.248
    endloop
  endfacet
  facet normal 0 1 0
    outer loop
      vertex 0 2 2
      vertex 4.80628 2 15.8757
      vertex 4.8885 2 15.5079
    endloop
  endfacet
  facet normal 0 1 0
    outer loop
      vertex 0 2 2
      vertex 4.8885 2 15.5079
      vertex 4.99366 2 15.1459
    endloop
  endfacet
  facet normal 0 1 0
    outer loop
      vertex 0 2 2
      vertex 4.99366 2 15.1459
      vertex 5.12134 2 14.7913
    endloop
  endfacet
  facet normal 0 1 0
    outer loop
      vertex 0 2 2
      vertex 5.12134 2 14.7913
      vertex 5.27104 2 14.4453
    endloop
  endfacet
  facet normal 0 1 0
    outer loop
      vertex 5.7 2 7.4
      vertex 8.30948 2 11.5
      vertex 15.7 2 7.4
    endloop
  endfacet
  facet normal 0 1 0
    outer loop
      vertex 8.30948 2 11.5
      vertex 5.7 2 7.4
      vertex 8.14532 2 11.571
    endloop
  endfacet
  facet normal 0 1 0
    outer loop
      vertex 8.14532 2 11.571
      vertex 5.7 2 7.4
      vertex 7.80948 2 11.7422
    endloop
  endfacet
  facet normal 0 1 0
    outer loop
      vertex 5.7 2 7.4
      vertex 7.48504 2 11.934
      vertex 7.80948 2 11.7422
    endloop
  endfacet
  facet normal 0 1 0
    outer loop
      vertex 5.7 2 7.4
      vertex 7.17329 2 12.1459
      vertex 7.48504 2 11.934
    endloop
  endfacet
  facet normal 0 1 0
    outer loop
      vertex 5.7 2 7.4
      vertex 6.87546 2 12.3769
      vertex 7.17329 2 12.1459
    endloop
  endfacet
  facet normal 0 1 0
    outer loop
      vertex 5.7 2 7.4
      vertex 6.59272 2 12.6262
      vertex 6.87546 2 12.3769
    endloop
  endfacet
  facet normal 0 1 0
    outer loop
      vertex 5.7 2 7.4
      vertex 6.32619 2 12.8927
      vertex 6.59272 2 12.6262
    endloop
  endfacet
  facet normal 0 1 0
    outer loop
      vertex 5.7 2 7.4
      vertex 6.07692 2 13.1755
      vertex 6.32619 2 12.8927
    endloop
  endfacet
  facet normal 0 1 0
    outer loop
      vertex 5.7 2 7.4
      vertex 5.8459 2 13.4733
      vertex 6.07692 2 13.1755
    endloop
  endfacet
  facet normal 0 1 -0
    outer loop
      vertex 5.7 2 7.4
      vertex 5.63403 2 13.785
      vertex 5.8459 2 13.4733
    endloop
  endfacet
  facet normal 0 1 0
    outer loop
      vertex 5.7 2 7.4
      vertex 5.44216 2 14.1095
      vertex 5.63403 2 13.785
    endloop
  endfacet
  facet normal 0 1 0
    outer loop
      vertex 5.7 2 7.4
      vertex 5.27104 2 14.4453
      vertex 5.44216 2 14.1095
    endloop
  endfacet
  facet normal 0 1 0
    outer loop
      vertex 0 2 2
      vertex 5.27104 2 14.4453
      vertex 5.7 2 7.4
    endloop
  endfacet
  facet normal 0 1 0
    outer loop
      vertex 4.3 2 2
      vertex 5.7 2 7.4
      vertex 5.7 2 3.4
    endloop
  endfacet
  facet normal 0 1 0
    outer loop
      vertex 15.7 2 3.4
      vertex 17.1 2 2
      vertex 5.7 2 3.4
    endloop
  endfacet
  facet normal 0 1 0
    outer loop
      vertex 4.3 2 2
      vertex 5.7 2 3.4
      vertex 17.1 2 2
    endloop
  endfacet
  facet normal 0 1 0
    outer loop
      vertex 5.7 2 7.4
      vertex 4.3 2 2
      vertex 0 2 2
    endloop
  endfacet
  facet normal 0 1 0
    outer loop
      vertex 4.80628 2 15.8757
      vertex 0 2 2
      vertex 0 2 25
    endloop
  endfacet
  facet normal 0 -1 0
    outer loop
      vertex 4.3 55.6 2
      vertex 0 55.6 6.96527
      vertex 0 55.6 2
    endloop
  endfacet
  facet normal 0 -1 0
    outer loop
      vertex 0 55.6 6.96527
      vertex 4.3 55.6 2
      vertex 21.4 55.6 6.96527
    endloop
  endfacet
  facet normal 0 -1 0
    outer loop
      vertex 17.1 55.6 2
      vertex 21.4 55.6 6.96527
      vertex 4.3 55.6 2
    endloop
  endfacet
  facet normal 0 -1 -0
    outer loop
      vertex 21.4 55.6 6.96527
      vertex 17.1 55.6 2
      vertex 21.4 55.6 2
    endloop
  endfacet
  facet normal -1 0 0
    outer loop
      vertex -2 6.05 0
      vertex -2 57.6 6.23733
      vertex -2 57.6 0
    endloop
  endfacet
  facet normal -1 -0 0
    outer loop
      vertex -2 57.6 6.23733
      vertex -2 6.05 0
      vertex -2 6.05 25
    endloop
  endfacet
  facet normal -1 0 0
    outer loop
      vertex -2 2.3 0
      vertex -2 4.05 25
      vertex -2 4.05 0
    endloop
  endfacet
  facet normal -1 -0 0
    outer loop
      vertex -2 4.05 25
      vertex -2 2.3 0
      vertex -2 2.3 25
    endloop
  endfacet
  facet normal -1 0 0
    outer loop
      vertex -2 0 0
      vertex -2 1.35 25
      vertex -2 1.35 0
    endloop
  endfacet
  facet normal -1 -0 0
    outer loop
      vertex -2 1.35 25
      vertex -2 0 0
      vertex -2 0 25
    endloop
  endfacet
  facet normal -1 0 0
    outer loop
      vertex 21.4 2 2
      vertex 21.4 55.6 6.96527
      vertex 21.4 55.6 2
    endloop
  endfacet
  facet normal -1 -0 0
    outer loop
      vertex 21.4 55.6 6.96527
      vertex 21.4 2 2
      vertex 21.4 6.05 25
    endloop
  endfacet
  facet normal -1 -0 0
    outer loop
      vertex 21.4 6.05 25
      vertex 21.4 2 2
      vertex 21.4 2 25
    endloop
  endfacet
  facet normal -1 0 0
    outer loop
      vertex 4.3 2 0
      vertex 4.3 55.6 2
      vertex 4.3 55.6 0
    endloop
  endfacet
  facet normal -1 -0 0
    outer loop
      vertex 4.3 55.6 2
      vertex 4.3 2 0
      vertex 4.3 2 2
    endloop
  endfacet
  facet normal 1 -0 0
    outer loop
      vertex 0 2 2
      vertex 0 55.6 0
      vertex 0 55.6 2
    endloop
  endfacet
  facet normal 1 0 0
    outer loop
      vertex 0 55.6 0
      vertex 0 2 2
      vertex 0 2 0
    endloop
  endfacet
  facet normal 0 -1 0
    outer loop
      vertex 0 55.6 0
      vertex 4.3 55.6 2
      vertex 0 55.6 2
    endloop
  endfacet
  facet normal 0 -1 -0
    outer loop
      vertex 4.3 55.6 2
      vertex 0 55.6 0
      vertex 4.3 55.6 0
    endloop
  endfacet
  facet normal 0 1 -0
    outer loop
      vertex 4.3 2 0
      vertex 0 2 2
      vertex 4.3 2 2
    endloop
  endfacet
  facet normal 0 1 0
    outer loop
      vertex 0 2 2
      vertex 4.3 2 0
      vertex 0 2 0
    endloop
  endfacet
  facet normal -1 0 0
    outer loop
      vertex 21.4 2 0
      vertex 21.4 55.6 2
      vertex 21.4 55.6 0
    endloop
  endfacet
  facet normal -1 -0 0
    outer loop
      vertex 21.4 55.6 2
      vertex 21.4 2 0
      vertex 21.4 2 2
    endloop
  endfacet
  facet normal 1 -0 0
    outer loop
      vertex 17.1 2 2
      vertex 17.1 55.6 0
      vertex 17.1 55.6 2
    endloop
  endfacet
  facet normal 1 0 0
    outer loop
      vertex 17.1 55.6 0
      vertex 17.1 2 2
      vertex 17.1 2 0
    endloop
  endfacet
  facet normal 0 -1 0
    outer loop
      vertex 17.1 55.6 0
      vertex 21.4 55.6 2
      vertex 17.1 55.6 2
    endloop
  endfacet
  facet normal 0 -1 -0
    outer loop
      vertex 21.4 55.6 2
      vertex 17.1 55.6 0
      vertex 21.4 55.6 0
    endloop
  endfacet
  facet normal 0 1 -0
    outer loop
      vertex 21.4 2 0
      vertex 17.1 2 2
      vertex 21.4 2 2
    endloop
  endfacet
  facet normal 0 1 0
    outer loop
      vertex 17.1 2 2
      vertex 21.4 2 0
      vertex 17.1 2 0
    endloop
  endfacet
  facet normal -3.00775e-07 0.34202 0.939693
    outer loop
      vertex 23.4 57.6 6.23733
      vertex 21.4 55.6 6.96527
      vertex 23.4 6.05 25
    endloop
  endfacet
  facet normal 0 0.34202 0.939693
    outer loop
      vertex 23.4 57.6 6.23733
      vertex 0 55.6 6.96527
      vertex 21.4 55.6 6.96527
    endloop
  endfacet
  facet normal -0 0.34202 0.939693
    outer loop
      vertex -2 57.6 6.23733
      vertex 0 55.6 6.96527
      vertex 23.4 57.6 6.23733
    endloop
  endfacet
  facet normal 3.00775e-07 0.34202 0.939693
    outer loop
      vertex -2 6.05 25
      vertex 0 55.6 6.96527
      vertex -2 57.6 6.23733
    endloop
  endfacet
  facet normal 0 0.34202 0.939693
    outer loop
      vertex 0 55.6 6.96527
      vertex -2 6.05 25
      vertex 0 6.05 25
    endloop
  endfacet
  facet normal 0 0.34202 0.939693
    outer loop
      vertex 23.4 6.05 25
      vertex 21.4 55.6 6.96527
      vertex 21.4 6.05 25
    endloop
  endfacet
  facet normal -1 0 0
    outer loop
      vertex 15.7 0 3.4
      vertex 15.7 2 7.4
      vertex 15.7 2 3.4
    endloop
  endfacet
  facet normal -1 -0 0
    outer loop
      vertex 15.7 2 7.4
      vertex 15.7 0 3.4
      vertex 15.7 0 7.4
    endloop
  endfacet
  facet normal 0 0 -1
    outer loop
      vertex 5.7 0 7.4
      vertex 15.7 2 7.4
      vertex 15.7 0 7.4
    endloop
  endfacet
  facet normal -0 0 -1
    outer loop
      vertex 15.7 2 7.4
      vertex 5.7 0 7.4
      vertex 5.7 2 7.4
    endloop
  endfacet
  facet normal -0 0 1
    outer loop
      vertex 5.7 2 3.4
      vertex 15.7 0 3.4
      vertex 15.7 2 3.4
    endloop
  endfacet
  facet normal 0 0 1
    outer loop
      vertex 15.7 0 3.4
      vertex 5.7 2 3.4
      vertex 5.7 0 3.4
    endloop
  endfacet
  facet normal 1 -0 0
    outer loop
      vertex 5.7 0 7.4
      vertex 5.7 2 3.4
      vertex 5.7 2 7.4
    endloop
  endfacet
  facet normal 1 0 0
    outer loop
      vertex 5.7 2 3.4
      vertex 5.7 0 7.4
      vertex 5.7 0 3.4
    endloop
  endfacet
  facet normal 0.707067 0 -0.707147
    outer loop
      vertex 6.59272 0 21.3738
      vertex 6.32619 2 21.1073
      vertex 6.59272 2 21.3738
    endloop
  endfacet
  facet normal 0.707067 0 -0.707147
    outer loop
      vertex 6.32619 2 21.1073
      vertex 6.59272 0 21.3738
      vertex 6.32619 0 21.1073
    endloop
  endfacet
  facet normal -0.508828 0 0.860868
    outer loop
      vertex 13.5905 2 11.7422
      vertex 13.915 0 11.934
      vertex 13.915 2 11.934
    endloop
  endfacet
  facet normal -0.508828 0 0.860868
    outer loop
      vertex 13.915 0 11.934
      vertex 13.5905 2 11.7422
      vertex 13.5905 0 11.7422
    endloop
  endfacet
  facet normal 0.612873 0 0.790182
    outer loop
      vertex 6.87546 2 12.3769
      vertex 7.17329 0 12.1459
      vertex 7.17329 2 12.1459
    endloop
  endfacet
  facet normal 0.612873 0 0.790182
    outer loop
      vertex 7.17329 0 12.1459
      vertex 6.87546 2 12.3769
      vertex 6.87546 0 12.3769
    endloop
  endfacet
  facet normal -0.396886 0 0.917868
    outer loop
      vertex 13.0905 2 11.5
      vertex 13.2547 0 11.571
      vertex 13.2547 2 11.571
    endloop
  endfacet
  facet normal -0.396886 0 0.917868
    outer loop
      vertex 13.2547 0 11.571
      vertex 13.0905 2 11.5
      vertex 13.0905 0 11.5
    endloop
  endfacet
  facet normal 0.562147 0 0.827038
    outer loop
      vertex 7.17329 2 12.1459
      vertex 7.48504 0 11.934
      vertex 7.48504 2 11.934
    endloop
  endfacet
  facet normal 0.562147 0 0.827038
    outer loop
      vertex 7.48504 0 11.934
      vertex 7.17329 2 12.1459
      vertex 7.17329 0 12.1459
    endloop
  endfacet
  facet normal -0.890898 0 0.454204
    outer loop
      vertex 15.9578 0 14.1095
      vertex 16.129 2 14.4453
      vertex 15.9578 2 14.1095
    endloop
  endfacet
  facet normal -0.890898 0 0.454204
    outer loop
      vertex 16.129 2 14.4453
      vertex 15.9578 0 14.1095
      vertex 16.129 0 14.4453
    endloop
  endfacet
  facet normal 0.827033 -0 0.562154
    outer loop
      vertex 5.63403 0 13.785
      vertex 5.8459 2 13.4733
      vertex 5.63403 2 13.785
    endloop
  endfacet
  facet normal 0.827033 0 0.562154
    outer loop
      vertex 5.8459 2 13.4733
      vertex 5.63403 0 13.785
      vertex 5.8459 0 13.4733
    endloop
  endfacet
  facet normal -0.975924 0 0.21811
    outer loop
      vertex 16.5115 0 15.5079
      vertex 16.5937 2 15.8757
      vertex 16.5115 2 15.5079
    endloop
  endfacet
  facet normal -0.975924 0 0.21811
    outer loop
      vertex 16.5937 2 15.8757
      vertex 16.5115 0 15.5079
      vertex 16.5937 0 15.8757
    endloop
  endfacet
  facet normal 0.995564 -0 0.0940918
    outer loop
      vertex 4.71184 0 16.6233
      vertex 4.74731 2 16.248
      vertex 4.71184 2 16.6233
    endloop
  endfacet
  facet normal 0.995564 0 0.0940918
    outer loop
      vertex 4.74731 2 16.248
      vertex 4.71184 0 16.6233
      vertex 4.74731 0 16.248
    endloop
  endfacet
  facet normal 0.890984 0 -0.454035
    outer loop
      vertex 5.44216 0 19.8905
      vertex 5.27104 2 19.5547
      vertex 5.44216 2 19.8905
    endloop
  endfacet
  facet normal 0.890984 0 -0.454035
    outer loop
      vertex 5.27104 2 19.5547
      vertex 5.44216 0 19.8905
      vertex 5.27104 0 19.5547
    endloop
  endfacet
  facet normal -0.454204 0 0.890898
    outer loop
      vertex 13.2547 2 11.571
      vertex 13.5905 0 11.7422
      vertex 13.5905 2 11.7422
    endloop
  endfacet
  facet normal -0.454204 0 0.890898
    outer loop
      vertex 13.5905 0 11.7422
      vertex 13.2547 2 11.571
      vertex 13.2547 0 11.571
    endloop
  endfacet
  facet normal -0.75014 0 -0.661279
    outer loop
      vertex 15.3231 0 20.8245
      vertex 15.0738 2 21.1073
      vertex 15.3231 2 20.8245
    endloop
  endfacet
  facet normal -0.75014 -0 -0.661279
    outer loop
      vertex 15.0738 2 21.1073
      vertex 15.3231 0 20.8245
      vertex 15.0738 0 21.1073
    endloop
  endfacet
  facet normal -0.99951 0 0.0313093
    outer loop
      vertex 16.6882 0 16.6233
      vertex 16.7 2 17
      vertex 16.6882 2 16.6233
    endloop
  endfacet
  facet normal -0.99951 0 0.0313093
    outer loop
      vertex 16.7 2 17
      vertex 16.6882 0 16.6233
      vertex 16.7 0 17
    endloop
  endfacet
  facet normal -0.396886 0 -0.917868
    outer loop
      vertex 13.0905 0 22.5
      vertex 13.2547 2 22.429
      vertex 13.2547 0 22.429
    endloop
  endfacet
  facet normal -0.396886 0 -0.917868
    outer loop
      vertex 13.2547 2 22.429
      vertex 13.0905 0 22.5
      vertex 13.0905 2 22.5
    endloop
  endfacet
  facet normal -0.960273 0 0.279063
    outer loop
      vertex 16.4063 0 15.1459
      vertex 16.5115 2 15.5079
      vertex 16.4063 2 15.1459
    endloop
  endfacet
  facet normal -0.960273 0 0.279063
    outer loop
      vertex 16.5115 2 15.5079
      vertex 16.4063 0 15.1459
      vertex 16.5115 0 15.5079
    endloop
  endfacet
  facet normal -0.995556 0 -0.0941706
    outer loop
      vertex 16.6882 0 17.3767
      vertex 16.6527 2 17.752
      vertex 16.6882 2 17.3767
    endloop
  endfacet
  facet normal -0.995556 -0 -0.0941706
    outer loop
      vertex 16.6527 2 17.752
      vertex 16.6882 0 17.3767
      vertex 16.6527 0 17.752
    endloop
  endfacet
  facet normal 0.508897 0 -0.860827
    outer loop
      vertex 7.48504 0 22.066
      vertex 7.80948 2 22.2578
      vertex 7.80948 0 22.2578
    endloop
  endfacet
  facet normal 0.508897 0 -0.860827
    outer loop
      vertex 7.80948 2 22.2578
      vertex 7.48504 0 22.066
      vertex 7.48504 2 22.066
    endloop
  endfacet
  facet normal 0.827033 0 -0.562154
    outer loop
      vertex 5.8459 0 20.5267
      vertex 5.63403 2 20.215
      vertex 5.8459 2 20.5267
    endloop
  endfacet
  facet normal 0.827033 0 -0.562154
    outer loop
      vertex 5.63403 2 20.215
      vertex 5.8459 0 20.5267
      vertex 5.63403 0 20.215
    endloop
  endfacet
  facet normal -0.940935 0 -0.338588
    outer loop
      vertex 16.4063 0 18.8541
      vertex 16.2787 2 19.2087
      vertex 16.4063 2 18.8541
    endloop
  endfacet
  facet normal -0.940935 -0 -0.338588
    outer loop
      vertex 16.2787 2 19.2087
      vertex 16.4063 0 18.8541
      vertex 16.2787 0 19.2087
    endloop
  endfacet
  facet normal -0.987675 0 0.156521
    outer loop
      vertex 16.5937 0 15.8757
      vertex 16.6527 2 16.248
      vertex 16.5937 2 15.8757
    endloop
  endfacet
  facet normal -0.987675 0 0.156521
    outer loop
      vertex 16.6527 2 16.248
      vertex 16.5937 0 15.8757
      vertex 16.6527 0 16.248
    endloop
  endfacet
  facet normal -0.562208 0 -0.826996
    outer loop
      vertex 13.915 0 22.066
      vertex 14.2267 2 21.8541
      vertex 14.2267 0 21.8541
    endloop
  endfacet
  facet normal -0.562208 0 -0.826996
    outer loop
      vertex 14.2267 2 21.8541
      vertex 13.915 0 22.066
      vertex 13.915 2 22.066
    endloop
  endfacet
  facet normal 0.999506 0 -0.0314153
    outer loop
      vertex 4.71184 0 17.3767
      vertex 4.7 2 17
      vertex 4.71184 2 17.3767
    endloop
  endfacet
  facet normal 0.999506 0 -0.0314153
    outer loop
      vertex 4.7 2 17
      vertex 4.71184 0 17.3767
      vertex 4.7 0 17
    endloop
  endfacet
  facet normal -0.661279 0 0.75014
    outer loop
      vertex 14.5245 2 12.3769
      vertex 14.8073 0 12.6262
      vertex 14.8073 2 12.6262
    endloop
  endfacet
  facet normal -0.661279 0 0.75014
    outer loop
      vertex 14.8073 0 12.6262
      vertex 14.5245 2 12.3769
      vertex 14.5245 0 12.3769
    endloop
  endfacet
  facet normal -0.987675 0 -0.156521
    outer loop
      vertex 16.6527 0 17.752
      vertex 16.5937 2 18.1243
      vertex 16.6527 2 17.752
    endloop
  endfacet
  facet normal -0.987675 -0 -0.156521
    outer loop
      vertex 16.5937 2 18.1243
      vertex 16.6527 0 17.752
      vertex 16.5937 0 18.1243
    endloop
  endfacet
  facet normal 0.750179 -0 0.661235
    outer loop
      vertex 6.07692 0 13.1755
      vertex 6.32619 2 12.8927
      vertex 6.07692 2 13.1755
    endloop
  endfacet
  facet normal 0.750179 0 0.661235
    outer loop
      vertex 6.32619 2 12.8927
      vertex 6.07692 0 13.1755
      vertex 6.32619 0 12.8927
    endloop
  endfacet
  facet normal 0.707067 -0 0.707147
    outer loop
      vertex 6.32619 0 12.8927
      vertex 6.59272 2 12.6262
      vertex 6.32619 2 12.8927
    endloop
  endfacet
  facet normal 0.707067 0 0.707147
    outer loop
      vertex 6.59272 2 12.6262
      vertex 6.32619 0 12.8927
      vertex 6.59272 0 12.6262
    endloop
  endfacet
  facet normal -0.995556 0 0.0941706
    outer loop
      vertex 16.6527 0 16.248
      vertex 16.6882 2 16.6233
      vertex 16.6527 2 16.248
    endloop
  endfacet
  facet normal -0.995556 0 0.0941706
    outer loop
      vertex 16.6882 2 16.6233
      vertex 16.6527 0 16.248
      vertex 16.6882 0 16.6233
    endloop
  endfacet
  facet normal 0.999506 -0 0.0314153
    outer loop
      vertex 4.7 0 17
      vertex 4.71184 2 16.6233
      vertex 4.7 2 17
    endloop
  endfacet
  facet normal 0.999506 0 0.0314153
    outer loop
      vertex 4.71184 2 16.6233
      vertex 4.7 0 17
      vertex 4.71184 0 16.6233
    endloop
  endfacet
  facet normal 0.987687 -0 0.156443
    outer loop
      vertex 4.74731 0 16.248
      vertex 4.80628 2 15.8757
      vertex 4.74731 2 16.248
    endloop
  endfacet
  facet normal 0.987687 0 0.156443
    outer loop
      vertex 4.80628 2 15.8757
      vertex 4.74731 0 16.248
      vertex 4.80628 0 15.8757
    endloop
  endfacet
  facet normal -0.940935 0 0.338588
    outer loop
      vertex 16.2787 0 14.7913
      vertex 16.4063 2 15.1459
      vertex 16.2787 2 14.7913
    endloop
  endfacet
  facet normal -0.940935 0 0.338588
    outer loop
      vertex 16.4063 2 15.1459
      vertex 16.2787 0 14.7913
      vertex 16.4063 0 15.1459
    endloop
  endfacet
  facet normal 0.454161 0 0.89092
    outer loop
      vertex 7.80948 2 11.7422
      vertex 8.14532 0 11.571
      vertex 8.14532 2 11.571
    endloop
  endfacet
  facet normal 0.454161 0 0.89092
    outer loop
      vertex 8.14532 0 11.571
      vertex 7.80948 2 11.7422
      vertex 7.80948 0 11.7422
    endloop
  endfacet
  facet normal -0.860868 0 0.508828
    outer loop
      vertex 15.766 0 13.785
      vertex 15.9578 2 14.1095
      vertex 15.766 2 13.785
    endloop
  endfacet
  facet normal -0.860868 0 0.508828
    outer loop
      vertex 15.9578 2 14.1095
      vertex 15.766 0 13.785
      vertex 15.9578 0 14.1095
    endloop
  endfacet
  facet normal -0.917781 0 0.397086
    outer loop
      vertex 16.129 0 14.4453
      vertex 16.2787 2 14.7913
      vertex 16.129 2 14.4453
    endloop
  endfacet
  facet normal -0.917781 0 0.397086
    outer loop
      vertex 16.2787 2 14.7913
      vertex 16.129 0 14.4453
      vertex 16.2787 0 14.7913
    endloop
  endfacet
  facet normal 0.396967 0 -0.917833
    outer loop
      vertex 8.14532 0 22.429
      vertex 8.30948 2 22.5
      vertex 8.30948 0 22.5
    endloop
  endfacet
  facet normal 0.396967 0 -0.917833
    outer loop
      vertex 8.30948 2 22.5
      vertex 8.14532 0 22.429
      vertex 8.14532 2 22.429
    endloop
  endfacet
  facet normal 0.987687 0 -0.156443
    outer loop
      vertex 4.80628 0 18.1243
      vertex 4.74731 2 17.752
      vertex 4.80628 2 18.1243
    endloop
  endfacet
  facet normal 0.987687 0 -0.156443
    outer loop
      vertex 4.74731 2 17.752
      vertex 4.80628 0 18.1243
      vertex 4.74731 0 17.752
    endloop
  endfacet
  facet normal 0.960301 -0 0.278965
    outer loop
      vertex 4.8885 0 15.5079
      vertex 4.99366 2 15.1459
      vertex 4.8885 2 15.5079
    endloop
  endfacet
  facet normal 0.960301 0 0.278965
    outer loop
      vertex 4.99366 2 15.1459
      vertex 4.8885 0 15.5079
      vertex 4.99366 0 15.1459
    endloop
  endfacet
  facet normal 0.612873 0 -0.790182
    outer loop
      vertex 6.87546 0 21.6231
      vertex 7.17329 2 21.8541
      vertex 7.17329 0 21.8541
    endloop
  endfacet
  facet normal 0.612873 0 -0.790182
    outer loop
      vertex 7.17329 2 21.8541
      vertex 6.87546 0 21.6231
      vertex 6.87546 2 21.6231
    endloop
  endfacet
  facet normal 0.790126 0 -0.612945
    outer loop
      vertex 6.07692 0 20.8245
      vertex 5.8459 2 20.5267
      vertex 6.07692 2 20.8245
    endloop
  endfacet
  facet normal 0.790126 0 -0.612945
    outer loop
      vertex 5.8459 2 20.5267
      vertex 6.07692 0 20.8245
      vertex 5.8459 0 20.5267
    endloop
  endfacet
  facet normal -0.975924 0 -0.21811
    outer loop
      vertex 16.5937 0 18.1243
      vertex 16.5115 2 18.4921
      vertex 16.5937 2 18.1243
    endloop
  endfacet
  facet normal -0.975924 -0 -0.21811
    outer loop
      vertex 16.5115 2 18.4921
      vertex 16.5937 0 18.1243
      vertex 16.5115 0 18.4921
    endloop
  endfacet
  facet normal -0.661279 0 -0.75014
    outer loop
      vertex 14.5245 0 21.6231
      vertex 14.8073 2 21.3738
      vertex 14.8073 0 21.3738
    endloop
  endfacet
  facet normal -0.661279 0 -0.75014
    outer loop
      vertex 14.8073 2 21.3738
      vertex 14.5245 0 21.6231
      vertex 14.5245 2 21.6231
    endloop
  endfacet
  facet normal 0.995564 0 -0.0940918
    outer loop
      vertex 4.74731 0 17.752
      vertex 4.71184 2 17.3767
      vertex 4.74731 2 17.752
    endloop
  endfacet
  facet normal 0.995564 0 -0.0940918
    outer loop
      vertex 4.71184 2 17.3767
      vertex 4.74731 0 17.752
      vertex 4.71184 0 17.3767
    endloop
  endfacet
  facet normal 0.960301 0 -0.278965
    outer loop
      vertex 4.99366 0 18.8541
      vertex 4.8885 2 18.4921
      vertex 4.99366 2 18.8541
    endloop
  endfacet
  facet normal 0.960301 0 -0.278965
    outer loop
      vertex 4.8885 2 18.4921
      vertex 4.99366 0 18.8541
      vertex 4.8885 0 18.4921
    endloop
  endfacet
  facet normal 0.975913 0 -0.218161
    outer loop
      vertex 4.8885 0 18.4921
      vertex 4.80628 2 18.1243
      vertex 4.8885 2 18.4921
    endloop
  endfacet
  facet normal 0.975913 0 -0.218161
    outer loop
      vertex 4.80628 2 18.1243
      vertex 4.8885 0 18.4921
      vertex 4.80628 0 18.1243
    endloop
  endfacet
  facet normal -0.707107 0 0.707107
    outer loop
      vertex 14.8073 0 12.6262
      vertex 15.0738 2 12.8927
      vertex 14.8073 2 12.6262
    endloop
  endfacet
  facet normal -0.707107 0 0.707107
    outer loop
      vertex 15.0738 2 12.8927
      vertex 14.8073 0 12.6262
      vertex 15.0738 0 12.8927
    endloop
  endfacet
  facet normal -0.99951 0 -0.0313093
    outer loop
      vertex 16.7 0 17
      vertex 16.6882 2 17.3767
      vertex 16.7 2 17
    endloop
  endfacet
  facet normal -0.99951 -0 -0.0313093
    outer loop
      vertex 16.6882 2 17.3767
      vertex 16.7 0 17
      vertex 16.6882 0 17.3767
    endloop
  endfacet
  facet normal -0.917781 0 -0.397086
    outer loop
      vertex 16.2787 0 19.2087
      vertex 16.129 2 19.5547
      vertex 16.2787 2 19.2087
    endloop
  endfacet
  facet normal -0.917781 -0 -0.397086
    outer loop
      vertex 16.129 2 19.5547
      vertex 16.2787 0 19.2087
      vertex 16.129 0 19.5547
    endloop
  endfacet
  facet normal 0.940867 0 -0.338776
    outer loop
      vertex 5.12134 0 19.2087
      vertex 4.99366 2 18.8541
      vertex 5.12134 2 19.2087
    endloop
  endfacet
  facet normal 0.940867 0 -0.338776
    outer loop
      vertex 4.99366 2 18.8541
      vertex 5.12134 0 19.2087
      vertex 4.99366 0 18.8541
    endloop
  endfacet
  facet normal -0.75014 0 0.661279
    outer loop
      vertex 15.0738 0 12.8927
      vertex 15.3231 2 13.1755
      vertex 15.0738 2 12.8927
    endloop
  endfacet
  facet normal -0.75014 0 0.661279
    outer loop
      vertex 15.3231 2 13.1755
      vertex 15.0738 0 12.8927
      vertex 15.3231 0 13.1755
    endloop
  endfacet
  facet normal 0.860787 -0 0.508965
    outer loop
      vertex 5.44216 0 14.1095
      vertex 5.63403 2 13.785
      vertex 5.44216 2 14.1095
    endloop
  endfacet
  facet normal 0.860787 0 0.508965
    outer loop
      vertex 5.63403 2 13.785
      vertex 5.44216 0 14.1095
      vertex 5.63403 0 13.785
    endloop
  endfacet
  facet normal -0.826996 0 0.562208
    outer loop
      vertex 15.5541 0 13.4733
      vertex 15.766 2 13.785
      vertex 15.5541 2 13.4733
    endloop
  endfacet
  facet normal -0.826996 0 0.562208
    outer loop
      vertex 15.766 2 13.785
      vertex 15.5541 0 13.4733
      vertex 15.766 0 13.785
    endloop
  endfacet
  facet normal -0.562208 0 0.826996
    outer loop
      vertex 13.915 2 11.934
      vertex 14.2267 0 12.1459
      vertex 14.2267 2 12.1459
    endloop
  endfacet
  facet normal -0.562208 0 0.826996
    outer loop
      vertex 14.2267 0 12.1459
      vertex 13.915 2 11.934
      vertex 13.915 0 11.934
    endloop
  endfacet
  facet normal 0.562147 0 -0.827038
    outer loop
      vertex 7.17329 0 21.8541
      vertex 7.48504 2 22.066
      vertex 7.48504 0 22.066
    endloop
  endfacet
  facet normal 0.562147 0 -0.827038
    outer loop
      vertex 7.48504 2 22.066
      vertex 7.17329 0 21.8541
      vertex 7.17329 2 21.8541
    endloop
  endfacet
  facet normal -0.612911 0 0.790152
    outer loop
      vertex 14.2267 2 12.1459
      vertex 14.5245 0 12.3769
      vertex 14.5245 2 12.3769
    endloop
  endfacet
  facet normal -0.612911 0 0.790152
    outer loop
      vertex 14.5245 0 12.3769
      vertex 14.2267 2 12.1459
      vertex 14.2267 0 12.1459
    endloop
  endfacet
  facet normal -0.826996 0 -0.562208
    outer loop
      vertex 15.766 0 20.215
      vertex 15.5541 2 20.5267
      vertex 15.766 2 20.215
    endloop
  endfacet
  facet normal -0.826996 -0 -0.562208
    outer loop
      vertex 15.5541 2 20.5267
      vertex 15.766 0 20.215
      vertex 15.5541 0 20.5267
    endloop
  endfacet
  facet normal 0.396967 0 0.917833
    outer loop
      vertex 8.14532 2 11.571
      vertex 8.30948 0 11.5
      vertex 8.30948 2 11.5
    endloop
  endfacet
  facet normal 0.396967 0 0.917833
    outer loop
      vertex 8.30948 0 11.5
      vertex 8.14532 2 11.571
      vertex 8.14532 0 11.571
    endloop
  endfacet
  facet normal -0.454204 0 -0.890898
    outer loop
      vertex 13.2547 0 22.429
      vertex 13.5905 2 22.2578
      vertex 13.5905 0 22.2578
    endloop
  endfacet
  facet normal -0.454204 0 -0.890898
    outer loop
      vertex 13.5905 2 22.2578
      vertex 13.2547 0 22.429
      vertex 13.2547 2 22.429
    endloop
  endfacet
  facet normal 0.661358 0 -0.75007
    outer loop
      vertex 6.59272 0 21.3738
      vertex 6.87546 2 21.6231
      vertex 6.87546 0 21.6231
    endloop
  endfacet
  facet normal 0.661358 0 -0.75007
    outer loop
      vertex 6.87546 2 21.6231
      vertex 6.59272 0 21.3738
      vertex 6.59272 2 21.3738
    endloop
  endfacet
  facet normal -0.960273 0 -0.279063
    outer loop
      vertex 16.5115 0 18.4921
      vertex 16.4063 2 18.8541
      vertex 16.5115 2 18.4921
    endloop
  endfacet
  facet normal -0.960273 -0 -0.279063
    outer loop
      vertex 16.4063 2 18.8541
      vertex 16.5115 0 18.4921
      vertex 16.4063 0 18.8541
    endloop
  endfacet
  facet normal -0.860868 0 -0.508828
    outer loop
      vertex 15.9578 0 19.8905
      vertex 15.766 2 20.215
      vertex 15.9578 2 19.8905
    endloop
  endfacet
  facet normal -0.860868 -0 -0.508828
    outer loop
      vertex 15.766 2 20.215
      vertex 15.9578 0 19.8905
      vertex 15.766 0 20.215
    endloop
  endfacet
  facet normal -0.707107 0 -0.707107
    outer loop
      vertex 15.0738 0 21.1073
      vertex 14.8073 2 21.3738
      vertex 15.0738 2 21.1073
    endloop
  endfacet
  facet normal -0.707107 -0 -0.707107
    outer loop
      vertex 14.8073 2 21.3738
      vertex 15.0738 0 21.1073
      vertex 14.8073 0 21.3738
    endloop
  endfacet
  facet normal 0.860787 0 -0.508965
    outer loop
      vertex 5.63403 0 20.215
      vertex 5.44216 2 19.8905
      vertex 5.63403 2 20.215
    endloop
  endfacet
  facet normal 0.860787 0 -0.508965
    outer loop
      vertex 5.44216 2 19.8905
      vertex 5.63403 0 20.215
      vertex 5.44216 0 19.8905
    endloop
  endfacet
  facet normal 0.750179 0 -0.661235
    outer loop
      vertex 6.32619 0 21.1073
      vertex 6.07692 2 20.8245
      vertex 6.32619 2 21.1073
    endloop
  endfacet
  facet normal 0.750179 0 -0.661235
    outer loop
      vertex 6.07692 2 20.8245
      vertex 6.32619 0 21.1073
      vertex 6.07692 0 20.8245
    endloop
  endfacet
  facet normal 0.917781 0 -0.397086
    outer loop
      vertex 5.27104 0 19.5547
      vertex 5.12134 2 19.2087
      vertex 5.27104 2 19.5547
    endloop
  endfacet
  facet normal 0.917781 0 -0.397086
    outer loop
      vertex 5.12134 2 19.2087
      vertex 5.27104 0 19.5547
      vertex 5.12134 0 19.2087
    endloop
  endfacet
  facet normal 0.890984 -0 0.454035
    outer loop
      vertex 5.27104 0 14.4453
      vertex 5.44216 2 14.1095
      vertex 5.27104 2 14.4453
    endloop
  endfacet
  facet normal 0.890984 0 0.454035
    outer loop
      vertex 5.44216 2 14.1095
      vertex 5.27104 0 14.4453
      vertex 5.44216 0 14.1095
    endloop
  endfacet
  facet normal -0.508828 0 -0.860868
    outer loop
      vertex 13.5905 0 22.2578
      vertex 13.915 2 22.066
      vertex 13.915 0 22.066
    endloop
  endfacet
  facet normal -0.508828 0 -0.860868
    outer loop
      vertex 13.915 2 22.066
      vertex 13.5905 0 22.2578
      vertex 13.5905 2 22.2578
    endloop
  endfacet
  facet normal -0.790152 0 0.612911
    outer loop
      vertex 15.3231 0 13.1755
      vertex 15.5541 2 13.4733
      vertex 15.3231 2 13.1755
    endloop
  endfacet
  facet normal -0.790152 0 0.612911
    outer loop
      vertex 15.5541 2 13.4733
      vertex 15.3231 0 13.1755
      vertex 15.5541 0 13.4733
    endloop
  endfacet
  facet normal -0.790152 0 -0.612911
    outer loop
      vertex 15.5541 0 20.5267
      vertex 15.3231 2 20.8245
      vertex 15.5541 2 20.5267
    endloop
  endfacet
  facet normal -0.790152 -0 -0.612911
    outer loop
      vertex 15.3231 2 20.8245
      vertex 15.5541 0 20.5267
      vertex 15.3231 0 20.8245
    endloop
  endfacet
  facet normal -0.612911 0 -0.790152
    outer loop
      vertex 14.2267 0 21.8541
      vertex 14.5245 2 21.6231
      vertex 14.5245 0 21.6231
    endloop
  endfacet
  facet normal -0.612911 0 -0.790152
    outer loop
      vertex 14.5245 2 21.6231
      vertex 14.2267 0 21.8541
      vertex 14.2267 2 21.8541
    endloop
  endfacet
  facet normal 0.940867 -0 0.338776
    outer loop
      vertex 4.99366 0 15.1459
      vertex 5.12134 2 14.7913
      vertex 4.99366 2 15.1459
    endloop
  endfacet
  facet normal 0.940867 0 0.338776
    outer loop
      vertex 5.12134 2 14.7913
      vertex 4.99366 0 15.1459
      vertex 5.12134 0 14.7913
    endloop
  endfacet
  facet normal 0.975913 -0 0.218161
    outer loop
      vertex 4.80628 0 15.8757
      vertex 4.8885 2 15.5079
      vertex 4.80628 2 15.8757
    endloop
  endfacet
  facet normal 0.975913 0 0.218161
    outer loop
      vertex 4.8885 2 15.5079
      vertex 4.80628 0 15.8757
      vertex 4.8885 0 15.5079
    endloop
  endfacet
  facet normal 0.661358 0 0.75007
    outer loop
      vertex 6.59272 2 12.6262
      vertex 6.87546 0 12.3769
      vertex 6.87546 2 12.3769
    endloop
  endfacet
  facet normal 0.661358 0 0.75007
    outer loop
      vertex 6.87546 0 12.3769
      vertex 6.59272 2 12.6262
      vertex 6.59272 0 12.6262
    endloop
  endfacet
  facet normal 0.790126 -0 0.612945
    outer loop
      vertex 5.8459 0 13.4733
      vertex 6.07692 2 13.1755
      vertex 5.8459 2 13.4733
    endloop
  endfacet
  facet normal 0.790126 0 0.612945
    outer loop
      vertex 6.07692 2 13.1755
      vertex 5.8459 0 13.4733
      vertex 6.07692 0 13.1755
    endloop
  endfacet
  facet normal 0.454161 0 -0.89092
    outer loop
      vertex 7.80948 0 22.2578
      vertex 8.14532 2 22.429
      vertex 8.14532 0 22.429
    endloop
  endfacet
  facet normal 0.454161 0 -0.89092
    outer loop
      vertex 8.14532 2 22.429
      vertex 7.80948 0 22.2578
      vertex 7.80948 2 22.2578
    endloop
  endfacet
  facet normal -0.890898 0 -0.454204
    outer loop
      vertex 16.129 0 19.5547
      vertex 15.9578 2 19.8905
      vertex 16.129 2 19.5547
    endloop
  endfacet
  facet normal -0.890898 -0 -0.454204
    outer loop
      vertex 15.9578 2 19.8905
      vertex 16.129 0 19.5547
      vertex 15.9578 0 19.8905
    endloop
  endfacet
  facet normal 0.917781 -0 0.397086
    outer loop
      vertex 5.12134 0 14.7913
      vertex 5.27104 2 14.4453
      vertex 5.12134 2 14.7913
    endloop
  endfacet
  facet normal 0.917781 0 0.397086
    outer loop
      vertex 5.27104 2 14.4453
      vertex 5.12134 0 14.7913
      vertex 5.27104 0 14.4453
    endloop
  endfacet
  facet normal 0.508897 0 0.860827
    outer loop
      vertex 7.48504 2 11.934
      vertex 7.80948 0 11.7422
      vertex 7.80948 2 11.7422
    endloop
  endfacet
  facet normal 0.508897 0 0.860827
    outer loop
      vertex 7.80948 0 11.7422
      vertex 7.48504 2 11.934
      vertex 7.48504 0 11.934
    endloop
  endfacet
  facet normal -0 0 1
    outer loop
      vertex 8.30948 2 11.5
      vertex 13.0905 0 11.5
      vertex 13.0905 2 11.5
    endloop
  endfacet
  facet normal 0 0 1
    outer loop
      vertex 13.0905 0 11.5
      vertex 8.30948 2 11.5
      vertex 8.30948 0 11.5
    endloop
  endfacet
  facet normal 0 0 -1
    outer loop
      vertex 8.30948 0 22.5
      vertex 13.0905 2 22.5
      vertex 13.0905 0 22.5
    endloop
  endfacet
  facet normal -0 0 -1
    outer loop
      vertex 13.0905 2 22.5
      vertex 8.30948 0 22.5
      vertex 8.30948 2 22.5
    endloop
  endfacet
  facet normal -1 0 0
    outer loop
      vertex -3.1 1.35 0
      vertex -3.1 2.3 25
      vertex -3.1 2.3 0
    endloop
  endfacet
  facet normal -1 -0 0
    outer loop
      vertex -3.1 2.3 25
      vertex -3.1 1.35 0
      vertex -3.1 1.35 25
    endloop
  endfacet
  facet normal 0 1 -0
    outer loop
      vertex -2 2.3 0
      vertex -3.1 2.3 25
      vertex -2 2.3 25
    endloop
  endfacet
  facet normal 0 1 0
    outer loop
      vertex -3.1 2.3 25
      vertex -2 2.3 0
      vertex -3.1 2.3 0
    endloop
  endfacet
  facet normal 0 -1 0
    outer loop
      vertex -3.1 1.35 0
      vertex -2 1.35 25
      vertex -3.1 1.35 25
    endloop
  endfacet
  facet normal 0 -1 -0
    outer loop
      vertex -2 1.35 25
      vertex -3.1 1.35 0
      vertex -2 1.35 0
    endloop
  endfacet
  facet normal -1 0 0
    outer loop
      vertex -4 4.05 0
      vertex -4 6.05 25
      vertex -4 6.05 0
    endloop
  endfacet
  facet normal -1 -0 0
    outer loop
      vertex -4 6.05 25
      vertex -4 4.05 0
      vertex -4 4.05 25
    endloop
  endfacet
  facet normal 0 1 -0
    outer loop
      vertex -2 6.05 0
      vertex -4 6.05 25
      vertex -2 6.05 25
    endloop
  endfacet
  facet normal 0 1 0
    outer loop
      vertex -4 6.05 25
      vertex -2 6.05 0
      vertex -4 6.05 0
    endloop
  endfacet
  facet normal 0 -1 0
    outer loop
      vertex -4 4.05 0
      vertex -2 4.05 25
      vertex -4 4.05 25
    endloop
  endfacet
  facet normal 0 -1 -0
    outer loop
      vertex -2 4.05 25
      vertex -4 4.05 0
      vertex -2 4.05 0
    endloop
  endfacet
  facet normal 1 -0 0
    outer loop
      vertex 24.5 1.35 25
      vertex 24.5 2.3 0
      vertex 24.5 2.3 25
    endloop
  endfacet
  facet normal 1 0 0
    outer loop
      vertex 24.5 2.3 0
      vertex 24.5 1.35 25
      vertex 24.5 1.35 0
    endloop
  endfacet
  facet normal 0 1 -0
    outer loop
      vertex 24.5 2.3 0
      vertex 23.4 2.3 25
      vertex 24.5 2.3 25
    endloop
  endfacet
  facet normal 0 1 0
    outer loop
      vertex 23.4 2.3 25
      vertex 24.5 2.3 0
      vertex 23.4 2.3 0
    endloop
  endfacet
  facet normal 0 -1 0
    outer loop
      vertex 23.4 1.35 0
      vertex 24.5 1.35 25
      vertex 23.4 1.35 25
    endloop
  endfacet
  facet normal 0 -1 -0
    outer loop
      vertex 24.5 1.35 25
      vertex 23.4 1.35 0
      vertex 24.5 1.35 0
    endloop
  endfacet
  facet normal 1 -0 0
    outer loop
      vertex 25.4 4.05 25
      vertex 25.4 6.05 0
      vertex 25.4 6.05 25
    endloop
  endfacet
  facet normal 1 0 0
    outer loop
      vertex 25.4 6.05 0
      vertex 25.4 4.05 25
      vertex 25.4 4.05 0
    endloop
  endfacet
  facet normal 0 1 -0
    outer loop
      vertex 25.4 6.05 0
      vertex 23.4 6.05 25
      vertex 25.4 6.05 25
    endloop
  endfacet
  facet normal 0 1 0
    outer loop
      vertex 23.4 6.05 25
      vertex 25.4 6.05 0
      vertex 23.4 6.05 0
    endloop
  endfacet
  facet normal 0 -1 0
    outer loop
      vertex 23.4 4.05 0
      vertex 25.4 4.05 25
      vertex 23.4 4.05 25
    endloop
  endfacet
  facet normal 0 -1 -0
    outer loop
      vertex 25.4 4.05 25
      vertex 23.4 4.05 0
      vertex 25.4 4.05 0
    endloop
  endfacet
endsolid OpenSCAD_Model
