<?xml version="1.0" encoding="UTF-8" standalone="no"?>
<svg
   xmlns:dc="http://purl.org/dc/elements/1.1/"
   xmlns:cc="http://creativecommons.org/ns#"
   xmlns:rdf="http://www.w3.org/1999/02/22-rdf-syntax-ns#"
   xmlns:svg="http://www.w3.org/2000/svg"
   xmlns="http://www.w3.org/2000/svg"
   xmlns:sodipodi="http://sodipodi.sourceforge.net/DTD/sodipodi-0.dtd"
   xmlns:inkscape="http://www.inkscape.org/namespaces/inkscape"
   width="155mm"
   height="158mm"
   viewBox="-73 -64 155 158"
   version="1.1"
   id="svg62"
   sodipodi:docname="left-plate-fixed.svg"
   inkscape:version="1.0.2 (e86c870879, 2021-01-15)">
  <metadata
     id="metadata68">
    <rdf:RDF>
      <cc:Work
         rdf:about="">
        <dc:format>image/svg+xml</dc:format>
        <dc:type
           rdf:resource="http://purl.org/dc/dcmitype/StillImage" />
        <dc:title>OpenSCAD Model</dc:title>
      </cc:Work>
    </rdf:RDF>
  </metadata>
  <defs
     id="defs66" />
  <sodipodi:namedview
     pagecolor="#ffffff"
     bordercolor="#666666"
     borderopacity="1"
     objecttolerance="10"
     gridtolerance="10"
     guidetolerance="10"
     inkscape:pageopacity="0"
     inkscape:pageshadow="2"
     inkscape:window-width="1916"
     inkscape:window-height="1040"
     id="namedview64"
     showgrid="false"
     inkscape:zoom="0.72592959"
     inkscape:cx="287.73702"
     inkscape:cy="765.90042"
     inkscape:window-x="1920"
     inkscape:window-y="38"
     inkscape:window-maximized="1"
     inkscape:current-layer="svg62" />
  <title
     id="title58">OpenSCAD Model</title>
  <path
     d="m -144.88877,281.16745 0.0117,0.0149 9.76702,12.417 0.7516,0.9556 v 0 0 l 0.138,0.3433 0.2966,0.7376 2.1162,2.9945 0.0278,0.0332 5.068,6.0614 5.9393,7.1033 0.0434,0.052 2.3849,0.7514 7.6892,2.4227 0.3783,0.0891 0.001,-7e-4 0.067,-0.0469 v 0 0 l 0.0892,-0.0625 11.455599,-8.0213 0.1653,0.006 0.172096,0.007 0.0418,-0.0195 0.0417,-0.0194 7.158786,-3.3382 7.0749,-3.2991 8e-4,-4e-4 0.0313,-0.0146 v 0 l 0.3443,-0.4 v 0 l 0.4818,-0.56 v 0 l 1.329919,-6.3364 2.77621,-13.2274 14.90638,1.6578 6.149293,0.6838 h 7.713298 0.0405 13.616599 l 1.4713,-4.0419 1.458401,-4.0069 h 4.5192 7.9862 1.957 18.9422008 l 4.1789003,-4.0364 4.8211001,-4.6569 v -13.788 -0.1104 -2.6997 -5.8536 -18.51419 -5.85358 -2.69976 -0.11036 -13.72891 -2.3809 -0.0651 -3.706 -6.9501 -7.8732 -0.0317 l -2.8547001,-2.4723 -0.2627,-0.8085 -0.4442,-0.7695 -0.5946,-0.6603 -0.7188,-0.5222 -0.8116003,-0.3614 -0.8691,-0.1847 h -0.1172 l -2.3271,-2.0153 h -18.9793008 -0.7844 -11.698499 -5.268002 l -1.424299,-4.2351 -2.611499,-7.7649 h -10.960603 -0.0384 -5.841196 l -2.518103,-1.9184 -1.1836,-0.9017 h -16.613881 l -0.900709,1.9369 -0.4107,0.8832 h -11.697909 -0.0294 -4.319484 -1.837402 -0.0225 -0.5395 -11.955495 -0.0241 -3.539 l -1.1947,0.2902 -3.9271,0.954 -9,9 -2.7868,11.4213 -0.8477,3.4743 -0.2544,1.453 -0.594,3.3934 -0.6408,5.6586 -1.2406,10.9553 -0.1908,3.4294 -0.0985,1.7714 v 17.3 l 0.0985,1.7714 0.1908,3.4294 1.2406,10.9553 0.6336,5.5953 -0.8145,4.1634 -1.1797,6.0304 -4.0918,2.865 -4.83802,3.3877 -0.0451,0.0316 -0.6245,0.6516 -0.4908,0.5121 v 0 l -0.5749,9.2527 z m 4.02502,-3.0797 0.2621,-4.218 0.1074,-1.7284 3.9905,-2.7942 3.6334,-2.5441 0.0603,0.1044 0.5945,0.6603 0.7188,0.5222 0.8117,0.3614 0.8691,0.1847 h 0.8885 l 0.869,-0.1847 0.8117,-0.3614 0.7188,-0.5222 0.5945,-0.6603 0.4443,-0.7695 0.2745,-0.845 0.0929,-0.8836 -0.0929,-0.8836 -0.2745,-0.845 -0.4443,-0.7695 -0.5945,-0.6603 -0.7188,-0.5222 -0.8117,-0.3614 -0.869,-0.1847 h -0.1601 l 1.1002,-8.0175 v -0.1 l -1.3635,-12.0406 -0.5179,-4.5733 -0.0912,-1.6397 -0.1981,-3.56111 v -17.09998 l 0.1981,-3.56111 0.0912,-1.6397 0.5179,-4.5733 1.3635,-12.0406 0.2225,-1.2711 0.6259,-3.5753 2.6813,-10.989 0.9532,-3.9066 1.1578,-1.1578 0.0924,0.2842 0.4442,0.7695 0.5945,0.6603 0.7188,0.5222 0.8117,0.3614 0.8691,0.1847 h 0.8885 l 0.869,-0.1847 0.8117,-0.3614 0.7188,-0.5222 0.5945,-0.6603 0.4443,-0.7695 0.2745,-0.845 0.0929,-0.8836 -0.0929,-0.8836 -0.2745,-0.845 -0.4443,-0.7695 -0.0822,-0.0913 0.6896,-0.0379 1.1656,-0.064 h 12.4676 3.009795 1.8251 0.533699 12.356487 0.0188 3.712539 l 0.391099,-0.8696 0.87733,-1.9504 h 11.398681 5.02205 l 2.351901,1.8155 1.301202,1.0045 h 11.616898 5.223301 l 1.1745,3.5347 2.812698,8.4653 h 12.087401 5.0165 1.763 0.8152 15.0429008 l -0.1,0.3077 -0.0929,0.8836 0.0929,0.8836 0.2746,0.845 0.4442,0.7695 0.5945,0.6603 0.7188,0.5222 0.8117,0.3614 0.8691,0.1847 h 0.8885 l 0.8691,-0.1847 0.8116003,-0.3614 0.7188,-0.5222 0.0346,-0.0384 0.0216,0.0188 v 9.8327 4.936 2.898 2.5351 7.9109 8.57392 1.90004 3.98344 17 3.9834 1.9001 8.5739 7.8784 l -0.9337,0.9019 -0.0837,-0.2574 -0.4442,-0.7695 -0.5946,-0.6603 -0.7188,-0.5222 -0.8116,-0.3614 -0.8691,-0.1847 h -0.8885 l -0.8691,0.1847 -0.8117,0.3614 -0.7188,0.5222 -0.5945,0.6603 -0.4442,0.7695 -0.2746,0.845 -0.0929,0.8836 0.0929,0.8836 0.2746,0.845 0.4202,0.7279 h -13.6377011 -1.7882 -1.8525 -7.655 -0.042 -9.389301 l -0.1384,0.4255 -0.1142,0.3509 0.0434,1.8581 0.048,2.0532 0.0011,0.049 v 0 h 0.0491 0.7822 l -1.151499,2.9981 h -5.996801 -13.206898 l -15.084194,-1.4289 -6.915728,-0.6551 -0.02861,0.005 v 0 l -0.06651,0.0117 -0.43067,0.5913 -0.18525,0.2543 -2.019381,7.6751 -2.261358,8.5947 -0.5581,-0.6198 -0.7188,-0.5223 -0.8117,-0.3613 -0.8691,-0.1848 h -0.8885 l -0.869,0.1848 -0.8117,0.3613 -0.7188,0.5223 -0.5945,0.6603 -0.4443,0.7694 -0.2745,0.845 -0.0929,0.8836 0.0929,0.8837 0.2745,0.845 0.4443,0.7694 0.5945,0.6603 0.6272,0.4557 -3.2309,1.5066 -5.738782,2.6761 -0.2533,0.0285 -0.315503,0.0355 -0.0292,0.0205 -9.246396,6.4743 -4.4787,0.8412 v 0 l -3.4671,-0.9525 v 0 l -5.1834,-6.3293 -5.6298,-6.8745 v 0 l -0.6218,-1.2089 -1.47,-2.3942 -0.2627,-0.6495 -8.8319,-11.2283 z"
     stroke="#000000"
     fill="#d3d3d3"
     stroke-width="0.5"
     id="path60" />
  <path
     style="fill:#000000;fill-opacity:0.909804;stroke:#00000a;stroke-width:0.499999"
     d="m -115.328,309.06717 -1.67459,-0.47399 -5.22152,-6.37832 c -2.87184,-3.50807 -5.32214,-6.54233 -5.44512,-6.74279 -0.12297,-0.20046 -0.70692,-1.20903 -1.29767,-2.24127 -0.7001,-1.22332 -2.89897,-4.2056 -6.3152,-8.56517 l -5.24111,-6.68837 0.11848,-2.09573 c 0.21997,-3.89073 -0.17807,-3.26376 3.86243,-6.08386 l 3.52174,-2.45803 0.81069,0.61881 c 1.99189,1.52045 4.69324,1.25617 6.29567,-0.61591 1.86436,-2.17809 1.19371,-5.66441 -1.3404,-6.9679 -0.37187,-0.19128 -0.80498,-0.34778 -0.96246,-0.34778 -0.15749,0 -0.32493,-0.10251 -0.3721,-0.2278 -0.0472,-0.12529 0.14731,-1.90392 0.43217,-3.95251 l 0.51794,-3.72472 -1.00589,-8.4852 -1.00588,-8.4852 -0.011,-13.30334 -0.011,-13.30335 1.04228,-8.83853 c 0.57326,-4.86118 1.21353,-9.7816 1.42284,-10.93425 0.2093,-1.15265 1.19763,-5.45802 2.19628,-9.56747 1.40508,-5.78191 1.9017,-7.55418 2.19586,-7.83622 0.2913,-0.27931 0.40135,-0.30712 0.47098,-0.11902 0.20142,0.54413 1.19327,1.4697 1.96236,1.83121 0.97923,0.46029 2.82429,0.51733 3.78258,0.11693 2.31183,-0.96594 3.36965,-3.67215 2.40679,-6.15726 -0.11715,-0.30239 0.78995,-0.31892 17.497255,-0.31892 h 17.620806 l 0.662256,-1.4579 0.662256,-1.4579 h 8.036325 8.03632 l 1.889241,1.4579 1.889245,1.4579 h 8.306045 8.306039 l 1.971095,5.92272 1.971097,5.92272 h 17.258737 17.2587348 l 0.01392,0.96334 c 0.024,1.66101 1.042784,3.32849 2.491213,4.0775 0.92701597,0.47938 2.61262,0.52391 3.724767,0.0984 l 0.9567473,-0.36605 v 40.50804 c 0,37.5463 -0.02215,40.52633 -0.302993,40.75816 -0.242842,0.20045 -0.318659,0.20355 -0.381905,0.0156 -0.1816233,-0.53978 -1.0252473,-1.31678 -1.9064873,-1.75592 -3.07512,-1.5324 -6.593631,0.65846 -6.562407,4.08618 0.005,0.55127 0.09648,1.22782 0.203247,1.50346 l 0.19412,0.50115 H -21.345297 -38.293395 l -0.177725,0.46746 c -0.09775,0.2571 -0.177728,1.4872 -0.177728,2.73356 0,2.12693 0.02188,2.26611 0.356133,2.26611 0.345673,0 0.343559,0.0335 -0.07202,1.13898 l -0.428153,1.13899 -9.541015,0.0376 -9.541011,0.0376 -10.934259,-1.05242 c -6.013841,-0.57883 -11.035102,-1.01816 -11.158364,-0.97628 -0.542028,0.18414 -1.030244,1.63191 -2.686731,7.9673 -0.969653,3.70854 -1.884458,7.16869 -2.0329,7.68923 l -0.269896,0.94644 -0.828818,-0.52563 c -2.828554,-1.79381 -6.622129,0.11034 -6.948379,3.48767 -0.103791,1.07442 0.370755,2.53945 1.086684,3.35485 l 0.538781,0.61364 -0.604512,0.26117 c -0.332481,0.14365 -2.039633,0.93715 -3.793655,1.76333 -1.754042,0.82618 -3.569678,1.64477 -4.034758,1.81908 -0.465079,0.17432 -2.866669,1.73082 -5.336869,3.4589 l -4.49128,3.14196 -1.86151,0.34671 c -1.02383,0.19068 -1.98763,0.37407 -2.14178,0.40753 -0.15414,0.0335 -1.03383,-0.15246 -1.95485,-0.41315 z"
     id="path70" />
  <path
     style="fill:#000000;fill-opacity:0.909804;stroke:#00000a;stroke-width:0.499999"
     d="m -115.63148,313.15445 c -2.59899,-0.82858 -4.82224,-1.57878 -4.94054,-1.66711 -0.11831,-0.0883 -2.67046,-3.11285 -5.67145,-6.72115 -5.1588,-6.20278 -7.1882,-8.84018 -7.67223,-9.97078 -0.11642,-0.27193 -2.46371,-3.35871 -5.21619,-6.85952 -2.75248,-3.50081 -5.09709,-6.5176 -5.21022,-6.70397 -0.1546,-0.25467 -0.11954,-1.70963 0.14112,-5.8565 0.33573,-5.34105 0.36082,-5.53255 0.78398,-5.98343 0.24043,-0.25618 2.44633,-1.86539 4.90198,-3.576 2.45565,-1.71062 4.52278,-3.15998 4.59361,-3.22079 0.0708,-0.0608 0.5882,-2.43851 1.14972,-5.28377 l 1.02093,-5.17321 -0.9239,-8.12892 c -1.19338,-10.4999 -1.27631,-11.9356 -1.28002,-22.16121 -0.004,-10.2507 0.0974,-12.02392 1.2831,-22.50635 1.11362,-9.84492 1.33201,-11.09045 3.56272,-20.31949 l 1.76191,-7.28951 4.45376,-4.48089 4.45375,-4.48089 2.49105,-0.57769 2.49104,-0.5777 17.067195,0.001 17.067176,0.001 0.684149,-1.4579 0.684151,-1.4579 h 8.096261 8.096262 l 1.882645,1.4579 1.882646,1.4579 8.352793,0.002 8.352796,0.002 2.025678,5.96661 2.025678,5.96661 18.456834,0.0464 18.4568338,0.0464 1.14065097,1.00144 c 0.62735603,0.55079 1.29206103,1.00323 1.47711803,1.00544 1.086186,0.0129 2.8327933,1.46717 3.0724113,2.55814 0.06965,0.31711 0.623334,0.93212 1.5563261,1.7287 l 1.448216,1.23648 v 42.04304 42.04309 l -4.3531371,4.21516 -4.3531393,4.21514 H -17.111146 -33.884475 l -0.354992,0.95675 c -0.195244,0.52621 -0.868363,2.37136 -1.495817,4.10034 l -1.140828,3.1436 -10.226041,-2.6e-4 -10.226042,-2.7e-4 -10.660902,-1.18944 c -5.863495,-0.6542 -10.818415,-1.16656 -11.010936,-1.1386 -0.310017,0.045 -0.58562,1.17419 -2.410434,9.87545 -1.653159,7.88279 -2.135468,9.90452 -2.440242,10.22893 -0.357336,0.38037 -14.298616,7.00876 -14.741292,7.00876 -0.11324,0 -2.776949,1.80415 -5.919349,4.00922 -3.1424,2.20508 -5.86673,4.00087 -6.05407,3.99065 -0.18733,-0.0102 -2.46706,-0.69652 -5.06606,-1.5251 z m 4.45209,-3.40042 2.09574,-0.39152 4.53292,-3.17245 c 2.4931,-1.74485 4.830299,-3.27828 5.193769,-3.40761 0.36347,-0.12934 2.652076,-1.16536 5.085799,-2.30225 l 4.424968,-2.06709 -0.821216,-0.75396 c -0.962311,-0.8835 -1.377048,-1.76174 -1.377048,-2.91603 0,-2.15747 1.71804,-3.90399 3.850294,-3.9141 1.088241,-0.005 1.987452,0.37876 2.807295,1.1986 0.360918,0.36092 0.699093,0.61334 0.751504,0.56093 0.05241,-0.0524 1.067858,-3.78636 2.256555,-8.29767 1.188695,-4.51132 2.267946,-8.37603 2.39833,-8.58826 0.202893,-0.33027 0.355256,-0.371 1.057128,-0.28266 0.451037,0.0568 5.618792,0.55365 11.483896,1.10417 l 10.663829,1.00096 9.199243,-0.0473 9.199241,-0.0473 0.66803,-1.64014 c 0.804122,-1.97428 0.819748,-2.09574 0.269648,-2.09574 -0.417045,0 -0.433724,-0.0566 -0.52368,-1.77637 -0.0511,-0.97701 -0.0535,-1.87909 -0.0053,-2.00462 0.06931,-0.1806 3.6966,-0.22823 17.380665,-0.22823 9.511191,0 17.2930748,-0.0385 17.2930748,-0.0855 0,-0.047 -0.17458,-0.42045 -0.387959,-0.82983 -0.835302,-1.60255 -0.622511,-3.14563 0.619602,-4.49316 1.469702,-1.59444 3.73997797,-1.68392 5.338553,-0.2104 0.422233,0.3892 0.868746,0.9516 0.992256,1.24977 0.123508,0.29818 0.272209,0.54214 0.330452,0.54214 0.05824,0 0.3763193,-0.26211 0.7068393,-0.58247 l 0.600948,-0.58246 v -41.13913 c 0,-28.85532 -0.05784,-41.17495 -0.19372,-41.25892 -0.106547,-0.0658 -0.332065,0.002 -0.501152,0.1495 -1.0454993,0.91559 -2.9520463,1.14512 -4.2044963,0.50616 -1.528279,-0.77967 -2.335025,-2.27183 -2.1374,-3.95333 l 0.114925,-0.97782 H -19.405999 -36.796094 l -1.989351,-5.96828 -1.989345,-5.96828 -8.550062,-0.0911 -8.550056,-0.0911 -1.828961,-1.41234 -1.828962,-1.41234 h -8.305425 -8.30543 l -0.666422,1.4579 -0.666423,1.4579 h -17.916784 c -9.854235,0 -17.958455,0.0417 -18.009365,0.0926 -0.0509,0.0509 0.14713,0.56346 0.44011,1.13898 0.66833,1.31288 0.63493,2.48276 -0.10702,3.7488 -1.48216,2.52911 -5.22929,2.49029 -6.64047,-0.0688 -0.27209,-0.4934 -0.53957,-0.89828 -0.5944,-0.89972 -0.0548,-0.001 -0.41459,0.31986 -0.79947,0.71401 l -0.69978,0.71664 -1.79938,7.34737 c -2.23628,9.13135 -2.48589,10.54289 -3.61952,20.46848 -1.1995,10.50231 -1.26646,11.68749 -1.26646,22.41523 0,10.77625 0.067,11.96648 1.26275,22.4326 l 0.91809,8.03583 -0.54694,3.90073 c -0.30081,2.1454 -0.54717,4.03345 -0.54746,4.19565 -3.7e-4,0.20838 0.22227,0.32481 0.75865,0.39675 1.73685,0.23296 3.11989,1.94219 3.11989,3.85573 0,1.29388 -0.60562,2.37807 -1.76075,3.15214 -0.74905,0.50195 -1.04834,0.59228 -1.96252,0.59228 -1.33188,0 -2.08937,-0.304 -2.94003,-1.17989 l -0.6573,-0.67681 -3.99866,2.79628 -3.99866,2.79629 -0.11876,2.4602 c -0.0653,1.35312 -0.15809,2.74724 -0.20617,3.09804 -0.0829,0.60499 0.18953,0.98944 5.29147,7.46659 2.95839,3.75582 5.37889,6.88532 5.37889,6.95443 0,0.0691 0.57943,1.08648 1.28763,2.2608 0.91938,1.52454 2.79424,3.97453 6.55594,8.56706 l 5.26832,6.43192 0.96136,0.27501 c 2.77486,0.79378 2.54123,0.78146 5.24394,0.27655 z"
     id="path72" />
  <path
     style="fill:#000000;fill-opacity:0.909804;stroke:#00000a;stroke-width:0.499999"
     d="m -115.17845,308.84473 c -0.74614,-0.2003 -1.45574,-0.42084 -1.57689,-0.4901 -0.21763,-0.12441 -4.04669,-4.75416 -8.46916,-10.24011 -1.25241,-1.55358 -2.65486,-3.48167 -3.11656,-4.28464 -1.07583,-1.87104 -3.08612,-4.62059 -7.85969,-10.74996 -2.10761,-2.70623 -3.88611,-5.00243 -3.95221,-5.10266 -0.0661,-0.10023 -0.0568,-1.23591 0.0207,-2.52372 0.10384,-1.7254 0.22365,-2.46863 0.45533,-2.82469 0.38029,-0.58442 0.22138,-0.45976 3.75771,-2.94807 l 2.8692,-2.01889 0.77555,0.52728 c 1.04258,0.70883 1.81455,0.94957 3.04494,0.94957 1.85593,0 3.44336,-1.08323 4.25089,-2.90072 0.51626,-1.16195 0.37567,-3.11989 -0.30777,-4.28609 -0.54239,-0.92552 -1.73288,-1.89428 -2.52219,-2.05245 -0.62462,-0.12516 -0.62388,-0.0412 -0.0387,-4.37522 l 0.46249,-3.42512 -1.0092,-8.46514 -1.00921,-8.46513 v -13.44121 c 0,-13.24034 0.007,-13.49919 0.46151,-17.32129 0.96278,-8.09438 1.74138,-14.14016 2.01347,-15.63441 0.60229,-3.30762 3.56765,-15.43555 4.10668,-16.79579 l 0.1924,-0.48552 0.72945,0.72945 c 1.0559,1.0559 1.97611,1.41768 3.61298,1.42043 1.19185,0.002 1.49052,-0.0687 2.33349,-0.55209 1.69209,-0.97036 2.69137,-3.19594 2.26721,-5.0495 -0.10844,-0.47388 -0.15646,-0.9023 -0.10672,-0.95204 0.0497,-0.0497 7.92271,-0.12056 17.495475,-0.15738 l 17.405025,-0.0669 0.667803,-1.39191 0.667803,-1.39191 7.861824,-0.0475 7.861817,-0.0475 1.796775,1.41426 1.796772,1.41426 8.382929,0.0911 8.38293,0.0911 1.975897,5.87716 1.975894,5.87717 h 17.179521 17.1795208 l 0.11921,1.01428 c 0.22369,1.90324 1.579431,3.76213 3.11295,4.26824 0.67147297,0.2216 2.538299,0.1696 3.6293293,-0.1011 l 0.524111,-0.13004 -0.07666,40.11087 c -0.04216,22.06096 -0.121895,40.15609 -0.177188,40.21138 -0.05529,0.0553 -0.3919703,-0.17433 -0.7481673,-0.51027 -0.9368,-0.88351 -1.885199,-1.27976 -3.264279,-1.36383 -1.514763,-0.0923 -2.26799,0.15098 -3.311853,1.06982 -1.144436,1.00737 -1.634641,2.09451 -1.62774,3.60986 0.003,0.66458 0.03559,1.33133 0.07236,1.48168 0.059,0.24124 -1.9089411,0.27882 -16.7494328,0.31986 l -16.816259,0.0465 -0.177366,0.46651 c -0.255958,0.67322 -0.226666,4.92473 0.03683,5.34666 0.167534,0.26827 0.155993,0.49602 -0.05297,1.04539 l -0.267174,0.7024 -9.195585,0.0992 c -7.861965,0.0848 -9.697748,0.053 -12.658101,-0.21915 -1.904384,-0.17508 -6.592442,-0.60923 -10.417906,-0.96479 -3.825466,-0.35556 -7.452166,-0.64648 -8.059336,-0.64648 -1.020431,0 -1.123407,0.0379 -1.361258,0.50116 -0.422611,0.82309 -1.085579,3.08904 -2.759242,9.43079 -0.872921,3.30762 -1.648849,6.0801 -1.72429,6.16109 -0.07544,0.081 -0.497337,-0.042 -0.937556,-0.27336 -1.09756,-0.57676 -3.199119,-0.58689 -4.262903,-0.0206 -2.644169,1.40771 -3.443846,4.7577 -1.715214,7.18534 0.213505,0.29984 0.34849,0.58487 0.299966,0.63339 -0.04852,0.0485 -2.028161,0.98675 -4.399177,2.08493 -4.376575,2.02709 -5.302665,2.57604 -10.771765,6.38499 l -2.55391,1.77868 -1.96572,0.37934 c -2.32352,0.4484 -2.06143,0.44888 -3.75943,-0.007 z"
     id="path74" />
  <path
     style="fill:#000000;fill-opacity:0.909804;stroke:#00000a;stroke-width:0.499999"
     d="m -115.69711,312.88407 c -2.43464,-0.78265 -4.59928,-1.57624 -4.81033,-1.76353 -0.5394,-0.47866 -8.84563,-10.46391 -10.87234,-13.07006 -0.92376,-1.18788 -1.83731,-2.46897 -2.0301,-2.84687 -0.32159,-0.63037 -3.6816,-5.07234 -7.63478,-10.09325 -3.28454,-4.17166 -3.11975,-3.88329 -3.11975,-5.45964 0,-2.72639 0.55755,-9.49521 0.81461,-9.88949 0.13619,-0.2089 2.15281,-1.72603 4.48136,-3.3714 2.32855,-1.64536 4.46408,-3.19659 4.74563,-3.44717 0.46111,-0.41038 0.5831,-0.79921 1.22925,-3.91811 0.39453,-1.90438 0.86121,-4.24586 1.03707,-5.20328 l 0.31975,-1.74076 -0.84384,-7.64447 c -1.3354,-12.0975 -1.29706,-11.41569 -1.28573,-22.86131 0.0114,-11.52786 0.0287,-11.81548 1.44378,-23.99719 0.96451,-8.30303 1.26491,-9.88699 4.19291,-22.10893 l 0.85135,-3.55363 4.46211,-4.48247 4.4621,-4.48247 2.58059,-0.57895 2.58059,-0.57896 16.964915,0.004 16.964898,0.004 0.684151,-1.4579 0.684152,-1.4579 7.955312,0.003 7.955315,0.003 1.868612,1.45447 1.868615,1.45448 h 8.280377 c 5.300791,0 8.320742,0.0653 8.392544,0.18148 0.06169,0.0998 1.000345,2.78555 2.085898,5.96828 l 1.973729,5.7868 18.472151,0.0477 18.4721478,0.0477 1.043924,0.89307 c 0.574159,0.49119 1.437828,1.0239 1.919269,1.18381 1.1542499,0.38338 2.0976123,1.18383 2.5636413,2.17526 0.231587,0.49268 0.91155,1.28385 1.7538381,2.04069 l 1.375614,1.23606 v 41.86837 41.86825 l -4.3281441,4.20541 -4.3281423,4.2054 -16.7893108,0.002 -16.789309,0.002 -0.199795,0.50115 c -0.297201,0.74565 -2.760225,7.5574 -2.760225,7.63386 0,0.0362 -4.462867,0.0659 -9.917489,0.0659 -9.787546,0 -9.980356,-0.007 -14.715687,-0.53944 -6.724125,-0.75598 -16.847062,-1.82968 -17.250136,-1.82968 -0.18552,0 -0.424597,0.19157 -0.531285,0.42573 -0.219083,0.48084 -1.070509,4.19788 -2.407083,10.50853 -1.275389,6.02175 -1.77279,8.21568 -1.992378,8.7879 -0.142555,0.37148 -0.596519,0.70007 -1.807316,1.30817 -2.098908,1.05413 -8.013451,3.86016 -11.182878,5.30548 -2.045576,0.93282 -3.364205,1.73633 -7.380615,4.49739 -5.78568,3.97733 -6.07917,4.16039 -6.64285,4.14313 -0.23875,-0.007 -2.42606,-0.65364 -4.86069,-1.4363 z m 4.67052,-2.92677 2.03891,-0.36714 2.41222,-1.69663 c 5.29054,-3.7211 6.868529,-4.68425 10.031245,-6.12277 1.72313,-0.78374 4.020732,-1.84256 5.105767,-2.35292 l 1.972791,-0.92794 -0.981654,-0.9622 c -1.246169,-1.22148 -1.57153,-2.18668 -1.226886,-3.63961 0.426352,-1.7974 2.293345,-3.10547 3.980603,-2.78893 0.837941,0.15719 1.501346,0.50626 2.307704,1.21425 0.370713,0.32549 0.714258,0.50008 0.800129,0.40663 0.240308,-0.26153 0.63056,-1.59942 2.374766,-8.14138 0.902606,-3.38537 1.819199,-6.76816 2.036869,-7.5173 l 0.395766,-1.36207 h 0.770225 c 0.423624,0 2.809688,0.20061 5.302361,0.4458 16.735366,1.64614 15.436632,1.5702 25.936747,1.51655 l 9.559164,-0.0488 0.58796,-1.45791 c 0.841007,-2.08537 0.907155,-2.42979 0.49585,-2.58189 -0.536528,-0.19841 -0.605848,-0.42515 -0.608812,-1.99135 l -0.0028,-1.47521 2.48902,-0.11937 c 1.368963,-0.0657 8.826755,-0.11937 16.572869,-0.11937 9.1926512,0 14.1229588,-0.0633 14.1964728,-0.18224 0.06195,-0.10023 0.394814,-0.18224 0.739706,-0.18224 0.344893,0 0.627076,-0.0443 0.627076,-0.0984 0,-0.0541 -0.154003,-0.40264 -0.342233,-0.77451 -0.752732,-1.48711 -0.632809,-2.71589 0.385635,-3.95144 1.761117,-2.13654 4.600112,-1.74338 6.214804,0.86066 0.393004,0.63381 0.5098653,0.62783 1.3006443,-0.0665 l 0.646526,-0.56762 -0.04789,-41.2468 c -0.03576,-30.79565 -0.101013,-41.29991 -0.257551,-41.45644 -0.158048,-0.15803 -0.404783,-0.0953 -1.002305,0.25485 -1.9667723,1.15252 -4.0860083,0.64752 -5.2610123,-1.25367 -0.308335,-0.4989 -0.38676,-0.90986 -0.381084,-1.99692 l 0.0071,-1.36875 H -19.231853 -36.613854 l -1.989224,-5.96828 -1.989224,-5.96828 -8.592572,-0.11472 -8.592568,-0.11473 -1.811749,-1.38873 -1.811745,-1.38874 h -8.456923 -8.456923 l -0.655658,1.4579 -0.655655,1.4579 -17.7357,0.003 c -10.746185,0.002 -17.842435,0.0703 -18.006545,0.17404 -0.23207,0.14673 -0.23619,0.25722 -0.0288,0.77172 0.70606,1.75125 0.77246,2.17904 0.4894,3.15274 -0.31558,1.08557 -1.28814,2.16016 -2.23908,2.474 -0.93814,0.30962 -2.45866,0.12757 -3.20481,-0.3837 -0.34679,-0.23762 -0.88835,-0.82586 -1.20346,-1.3072 -0.31511,-0.48134 -0.65489,-0.87516 -0.75506,-0.87516 -0.10017,0 -0.51322,0.30884 -0.91789,0.68631 -0.73533,0.68591 -0.73643,0.68901 -1.88782,5.33045 -2.56299,10.3318 -3.14199,13.31185 -4.00047,20.58993 -1.44792,12.27521 -1.55623,14.0219 -1.55971,25.1519 -0.003,10.35414 0.10322,12.40824 1.10953,21.4098 0.40338,3.60831 0.79765,7.1346 0.87616,7.83622 0.11208,1.00162 0.03,2.09778 -0.38193,5.10265 -0.28857,2.10484 -0.50158,4.02712 -0.47336,4.27173 0.0419,0.36314 0.20756,0.4844 0.90279,0.6609 1.1959,0.30359 1.86724,0.84283 2.41313,1.93831 0.85619,1.71814 0.43835,3.43845 -1.10704,4.55793 -1.46371,1.0603 -3.2543,0.8728 -4.6315,-0.48499 l -0.83225,-0.82052 -3.90515,2.74182 c -2.14783,1.50799 -3.9993,2.79754 -4.11437,2.86565 -0.31333,0.18546 -0.66812,6.14464 -0.39635,6.65717 0.28613,0.53961 1.75759,2.47352 6.28486,8.26006 2.13113,2.7239 4.37271,5.79113 4.98129,6.81605 0.60858,1.02492 1.79455,2.7736 2.63549,3.88597 1.36993,1.81209 9.07279,11.32625 9.65017,11.91938 0.29908,0.30723 3.09944,1.09855 3.9475,1.11547 0.35833,0.007 1.56903,-0.15222 2.69043,-0.35414 z"
     id="path76" />
  <path
     style="fill:#000000;fill-opacity:0.909804;stroke:#00000a;stroke-width:0.499999"
     d="m -115.79248,313.61504 c -2.78778,-0.8871 -5.09053,-1.64186 -5.11722,-1.67725 -0.0267,-0.0354 -2.54654,-3.05759 -5.59967,-6.71601 -5.3967,-6.46661 -7.42473,-9.08981 -7.80915,-10.10093 -0.10287,-0.27055 -2.56235,-3.51199 -5.46554,-7.2032 l -5.27853,-6.71131 0.36425,-5.80259 c 0.36338,-5.78877 0.36538,-5.80377 0.84083,-6.30003 0.26212,-0.27359 2.535,-1.93756 5.05083,-3.6977 l 4.57424,-3.20026 0.98439,-5.05599 0.98439,-5.056 -0.93996,-8.38005 c -1.17602,-10.48459 -1.30029,-12.58628 -1.30133,-22.00936 -0.001,-9.36292 0.13903,-11.75339 1.28906,-21.99815 1.14185,-10.17198 1.38693,-11.576 3.63234,-20.80912 l 1.83095,-7.52882 4.48842,-4.49499 4.48843,-4.49498 2.60943,-0.65323 2.60944,-0.65323 h 16.961275 16.961268 l 0.649081,-1.36678 0.649082,-1.36678 h 8.445031 8.445027 l 1.785604,1.36521 1.785607,1.3652 8.47715,0.002 8.477153,0.002 1.998405,6.01384 1.998405,6.01384 h 18.348968 18.3489658 l 1.17412597,1.00231 c 0.64576603,0.55127 1.28787803,1.00311 1.42691603,1.00409 0.139036,9.8e-4 0.668639,0.19542 1.176893,0.43208 1.0001073,0.4657 1.9687733,1.49307 2.2709033,2.40853 0.12097,0.36655 0.7144361,1.01721 1.6408561,1.799 l 1.451338,1.22477 v 42.23106 42.23111 l -4.5382341,4.40348 -4.5382373,4.40348 -16.7149708,0.0465 -16.714969,0.0465 -1.160071,3.18916 c -0.638041,1.75403 -1.290745,3.53768 -1.450452,3.96366 l -0.290375,0.77452 -10.964743,0.004 -10.964741,0.004 -10.160283,-1.12749 c -5.588153,-0.62012 -10.209087,-1.07868 -10.268748,-1.01903 -0.05966,0.0597 -0.997668,4.33965 -2.084472,9.5111 -1.086801,5.17143 -2.022774,9.54999 -2.079943,9.73011 -0.233452,0.73554 -1.415412,1.38773 -8.209322,4.52981 -3.90899,1.80786 -7.230544,3.32816 -7.381244,3.37846 -0.1507,0.0503 -2.807519,1.86494 -5.904039,4.03252 -3.09653,2.16759 -5.76147,3.93727 -5.92209,3.93262 -0.16062,-0.005 -2.57294,-0.73427 -5.36072,-1.62136 z m 6.09636,0.89005 0.43023,-0.3753 -0.54672,0.32014 c -0.71955,0.42134 -0.73025,0.43045 -0.50615,0.43045 0.10583,0 0.38602,-0.16888 0.62264,-0.37529 z m 25.670117,-14.38596 c 0,-0.10023 -0.03616,-0.18224 -0.08036,-0.18224 -0.0442,0 -0.131048,0.082 -0.192995,0.18224 -0.06194,0.10023 -0.02577,0.18224 0.08036,0.18224 0.106146,0 0.192993,-0.082 0.192993,-0.18224 z m -46.835047,-0.79776 c 0,-0.0378 -0.14351,-0.18135 -0.31891,-0.31891 -0.28904,-0.22668 -0.29549,-0.22024 -0.0688,0.0688 0.23807,0.30356 0.38772,0.4001 0.38772,0.25011 z m 47.688487,-0.87655 c -0.05817,-0.14537 -0.10136,-0.10219 -0.110101,0.11011 -0.0079,0.1921 0.03516,0.29974 0.09571,0.23918 0.06056,-0.0606 0.06703,-0.21773 0.01437,-0.34929 z m -48.235197,0.14761 c 0,-0.0378 -0.14351,-0.18136 -0.31892,-0.31892 -0.28904,-0.22668 -0.29548,-0.22024 -0.0688,0.0688 0.23807,0.30356 0.38772,0.4001 0.38772,0.25011 z m -13.17775,-18.29164 c -0.0458,-0.1754 -0.0833,-0.0319 -0.0833,0.31892 0,0.3508 0.0375,0.49432 0.0833,0.31891 0.0458,-0.1754 0.0458,-0.46242 0,-0.63783 z m 105.528759,-3.45104 c -0.174236,-0.0456 -0.502264,-0.0473 -0.72895,-0.004 -0.226687,0.0436 -0.08413,0.0809 0.31679,0.0829 0.400923,0.002 0.586396,-0.0336 0.41216,-0.0793 z m 1.202763,-3.24619 c -0.05769,-0.15035 -0.137128,-0.27336 -0.176519,-0.27336 -0.03939,0 -0.07162,0.12301 -0.07162,0.27336 0,0.15035 0.07944,0.27336 0.176519,0.27336 0.09708,0 0.129315,-0.12301 0.07162,-0.27336 z m -102.113792,-1.36678 c 0.21657,-0.41674 0.2109,-0.43427 -0.0664,-0.20549 -0.16675,0.13757 -0.30319,0.37675 -0.30319,0.53153 0,0.33089 0.0521,0.2849 0.36963,-0.32604 z m 103.645732,-2.68154 c -0.273841,-0.0416 -0.765881,-0.0424 -1.093428,-0.002 -0.327543,0.0406 -0.103494,0.0746 0.497891,0.0756 0.601384,10e-4 0.869376,-0.0322 0.595537,-0.0737 z m -92.413692,-10.12065 c -0.0506,-0.12529 -0.0919,-0.0228 -0.0919,0.22779 0,0.25058 0.0414,0.35309 0.0919,0.2278 0.0505,-0.12529 0.0505,-0.3303 0,-0.45559 z m -1.07758,-42.92997 c -0.0282,-2.87447 -0.0512,-0.46991 -0.0512,5.34347 3e-5,5.81337 0.0231,8.16522 0.0512,5.22632 0.0282,-2.93891 0.0281,-7.69531 -4e-5,-10.56979 z m 16.35833,-49.83032 c 0.65133,-0.0664 0.62749,-0.0772 -0.23017,-0.10469 -0.88742,-0.0284 -1.13845,0.0914 -0.83251,0.39732 0.0683,0.0683 0.1719,0.0471 0.23016,-0.0472 0.0583,-0.0943 0.43289,-0.20473 0.83252,-0.24546 z"
     id="path78" />
  <path
     style="fill:#000000;fill-opacity:0.909804;stroke:#00000a;stroke-width:0.499999"
     d="m -111.7261,315.0503 c -0.6515,-0.19191 -2.99935,-0.93517 -5.21745,-1.65169 l -4.03291,-1.30277 -4.2589,-5.11049 c -5.60077,-6.72068 -8.06516,-9.82274 -8.82515,-11.10872 -0.75598,-1.2792 -2.25012,-3.26638 -7.30738,-9.71868 l -3.87227,-4.94042 0.35425,-5.44713 c 0.19484,-2.99591 0.40217,-5.67164 0.46075,-5.94605 0.14212,-0.66584 0.7591,-1.16769 5.77185,-4.69484 l 4.27339,-3.00692 0.9691,-5.00421 0.9691,-5.00421 -0.85387,-7.84354 c -1.30785,-12.01381 -1.28887,-11.68482 -1.29325,-22.42254 -0.004,-10.25632 0.0555,-11.51933 0.91659,-19.40831 1.40076,-12.83279 1.56292,-13.77418 4.37892,-25.42215 l 1.36579,-5.64936 4.57593,-4.58612 4.57593,-4.58611 2.6094,-0.65322 2.6094,-0.65321 h 16.912335 16.912318 l 0.676303,-1.36679 0.676301,-1.36678 h 8.479561 8.479557 l 1.777,1.36496 1.777003,1.36495 8.545807,0.0474 8.54581,0.0474 1.989395,5.96828 1.989399,5.96828 h 18.305177 18.3051798 l 1.15471597,0.97958 c 0.67398603,0.57176 1.53352203,1.10539 2.06460503,1.28179 1.1632243,0.38636 2.2784173,1.34223 2.7836973,2.386 0.24193,0.49976 0.9590721,1.32723 1.8383961,2.12121 l 1.4417314,1.30181 v 42.23664 42.23663 l -4.6014995,4.47758 -4.6015013,4.47757 -16.6818738,0.004 -16.681876,0.004 -1.450766,4.0089 -1.450766,4.0089 -11.116495,-10e-4 c -8.615629,-0.001 -11.628963,-0.0616 -13.394462,-0.26906 -1.252885,-0.14726 -5.353231,-0.59622 -9.111881,-0.99769 -3.758653,-0.40147 -7.261497,-0.77782 -7.7841,-0.83633 -0.883674,-0.0989 -0.957633,-0.0767 -1.056497,0.31719 -0.05847,0.23296 -0.996714,4.5903 -2.084989,9.68298 -1.379494,6.45548 -2.076101,9.36706 -2.300404,9.61491 -0.39179,0.43293 -4.129058,2.33847 -8.551402,4.36017 -6.88032,3.14537 -7.11591,3.27643 -12.118779,6.74191 -5.02254,3.4791 -6.38016,4.3825 -6.55068,4.35898 -0.0555,-0.008 -0.63404,-0.17094 -1.28554,-0.36285 z"
     id="path80" />
</svg>
